<mxfile host="app.diagrams.net" agent="Mozilla/5.0 (Windows NT 10.0; Win64; x64) AppleWebKit/537.36 (KHTML, like Gecko) Chrome/140.0.0.0 Safari/537.36" version="28.2.5" pages="3">
  <diagram id="prtHgNgQTEPvFCAcTncT" name="Page-1">
    <mxGraphModel dx="983" dy="541" grid="1" gridSize="10" guides="1" tooltips="1" connect="1" arrows="1" fold="1" page="1" pageScale="1" pageWidth="827" pageHeight="1169" math="0" shadow="0">
      <root>
        <mxCell id="0" />
        <mxCell id="1" parent="0" />
        <mxCell id="dNxyNK7c78bLwvsdeMH5-19" value="Payment system" style="swimlane;html=1;childLayout=stackLayout;resizeParent=1;resizeParentMax=0;horizontal=0;startSize=20;horizontalStack=0;" parent="1" vertex="1">
          <mxGeometry width="920" height="570" as="geometry" />
        </mxCell>
        <mxCell id="dNxyNK7c78bLwvsdeMH5-20" value="Client" style="swimlane;html=1;startSize=20;horizontal=0;" parent="dNxyNK7c78bLwvsdeMH5-19" vertex="1">
          <mxGeometry x="20" width="900" height="180" as="geometry" />
        </mxCell>
        <mxCell id="dNxyNK7c78bLwvsdeMH5-25" value="" style="edgeStyle=orthogonalEdgeStyle;rounded=0;orthogonalLoop=1;jettySize=auto;html=1;" parent="dNxyNK7c78bLwvsdeMH5-20" source="dNxyNK7c78bLwvsdeMH5-23" target="dNxyNK7c78bLwvsdeMH5-24" edge="1">
          <mxGeometry relative="1" as="geometry" />
        </mxCell>
        <mxCell id="dNxyNK7c78bLwvsdeMH5-23" value="&lt;font style=&quot;font-size: 9px;&quot;&gt;Início&lt;/font&gt;" style="ellipse;whiteSpace=wrap;html=1;strokeWidth=3;" parent="dNxyNK7c78bLwvsdeMH5-20" vertex="1">
          <mxGeometry x="40" y="40" width="40" height="40" as="geometry" />
        </mxCell>
        <mxCell id="dNxyNK7c78bLwvsdeMH5-24" value="&lt;font style=&quot;font-size: 9px;&quot;&gt;Cliente preenche&lt;/font&gt;&lt;div&gt;&lt;font style=&quot;font-size: 9px;&quot;&gt;os dados&lt;/font&gt;&lt;/div&gt;" style="rounded=1;whiteSpace=wrap;html=1;fontFamily=Helvetica;fontSize=12;fontColor=#000000;align=center;" parent="dNxyNK7c78bLwvsdeMH5-20" vertex="1">
          <mxGeometry x="100" y="30" width="80" height="60" as="geometry" />
        </mxCell>
        <mxCell id="dNxyNK7c78bLwvsdeMH5-33" value="" style="edgeStyle=orthogonalEdgeStyle;rounded=0;orthogonalLoop=1;jettySize=auto;html=1;endArrow=classic;endFill=1;exitX=1;exitY=0.5;exitDx=0;exitDy=0;" parent="dNxyNK7c78bLwvsdeMH5-20" source="rI7qGN4eYhpW-SmNuXcD-64" target="dNxyNK7c78bLwvsdeMH5-32" edge="1">
          <mxGeometry relative="1" as="geometry">
            <mxPoint x="860" y="60" as="sourcePoint" />
          </mxGeometry>
        </mxCell>
        <mxCell id="rI7qGN4eYhpW-SmNuXcD-3" value="" style="edgeStyle=orthogonalEdgeStyle;rounded=0;orthogonalLoop=1;jettySize=auto;html=1;endArrow=classic;endFill=1;exitX=1;exitY=0.5;exitDx=0;exitDy=0;entryX=0;entryY=0.5;entryDx=0;entryDy=0;" edge="1" parent="dNxyNK7c78bLwvsdeMH5-20" source="dNxyNK7c78bLwvsdeMH5-24" target="rI7qGN4eYhpW-SmNuXcD-68">
          <mxGeometry relative="1" as="geometry">
            <mxPoint x="210" y="190" as="sourcePoint" />
            <mxPoint x="190" y="40" as="targetPoint" />
          </mxGeometry>
        </mxCell>
        <mxCell id="dNxyNK7c78bLwvsdeMH5-29" value="" style="edgeStyle=orthogonalEdgeStyle;rounded=0;orthogonalLoop=1;jettySize=auto;html=1;endArrow=classic;endFill=1;" parent="dNxyNK7c78bLwvsdeMH5-20" target="dNxyNK7c78bLwvsdeMH5-28" edge="1">
          <mxGeometry relative="1" as="geometry">
            <mxPoint x="710" y="270.0344827586207" as="sourcePoint" />
          </mxGeometry>
        </mxCell>
        <mxCell id="dNxyNK7c78bLwvsdeMH5-32" value="&lt;font style=&quot;font-size: 9px;&quot;&gt;Fim&lt;/font&gt;" style="ellipse;whiteSpace=wrap;html=1;strokeWidth=3;" parent="dNxyNK7c78bLwvsdeMH5-20" vertex="1">
          <mxGeometry x="820" y="40" width="40" height="40" as="geometry" />
        </mxCell>
        <mxCell id="rI7qGN4eYhpW-SmNuXcD-65" value="" style="edgeStyle=orthogonalEdgeStyle;shape=connector;rounded=0;orthogonalLoop=1;jettySize=auto;html=1;shadow=0;strokeColor=default;align=center;verticalAlign=middle;fontFamily=Helvetica;fontSize=11;fontColor=default;labelBackgroundColor=default;endArrow=classic;endFill=1;flowAnimation=0;" edge="1" parent="dNxyNK7c78bLwvsdeMH5-20" source="rI7qGN4eYhpW-SmNuXcD-62" target="rI7qGN4eYhpW-SmNuXcD-64">
          <mxGeometry relative="1" as="geometry" />
        </mxCell>
        <mxCell id="rI7qGN4eYhpW-SmNuXcD-62" value="&lt;font style=&quot;font-size: 9px;&quot;&gt;receive&lt;/font&gt;&lt;div style=&quot;font-size: 9px;&quot;&gt;&lt;font style=&quot;line-height: 9px;&quot;&gt;request&lt;/font&gt;&lt;/div&gt;" style="ellipse;whiteSpace=wrap;html=1;rounded=0;" vertex="1" parent="dNxyNK7c78bLwvsdeMH5-20">
          <mxGeometry x="620" y="40" width="40" height="40" as="geometry" />
        </mxCell>
        <mxCell id="rI7qGN4eYhpW-SmNuXcD-64" value="&lt;font style=&quot;font-size: 9px;&quot;&gt;Confirma a transação&lt;/font&gt;" style="whiteSpace=wrap;html=1;rounded=1;" vertex="1" parent="dNxyNK7c78bLwvsdeMH5-20">
          <mxGeometry x="700" y="30" width="80" height="60" as="geometry" />
        </mxCell>
        <mxCell id="rI7qGN4eYhpW-SmNuXcD-68" value="&lt;font style=&quot;font-size: 9px; background-color: rgb(236, 236, 236);&quot;&gt;send&lt;/font&gt;&lt;div style=&quot;font-size: 9px; background-color: rgb(236, 236, 236);&quot;&gt;&lt;font style=&quot;line-height: 9px;&quot;&gt;request&lt;/font&gt;&lt;/div&gt;" style="ellipse;shape=doubleEllipse;whiteSpace=wrap;html=1;aspect=fixed;fontFamily=Helvetica;fontSize=11;fontColor=default;labelBackgroundColor=default;" vertex="1" parent="dNxyNK7c78bLwvsdeMH5-20">
          <mxGeometry x="197.5" y="37.5" width="45" height="45" as="geometry" />
        </mxCell>
        <mxCell id="rI7qGN4eYhpW-SmNuXcD-9" value="" style="edgeStyle=orthogonalEdgeStyle;shape=connector;rounded=0;orthogonalLoop=1;jettySize=auto;html=1;shadow=0;strokeColor=default;align=center;verticalAlign=middle;fontFamily=Helvetica;fontSize=11;fontColor=default;labelBackgroundColor=default;endArrow=classic;endFill=1;flowAnimation=0;dashed=1;exitX=0.5;exitY=1;exitDx=0;exitDy=0;entryX=0.5;entryY=0;entryDx=0;entryDy=0;" edge="1" parent="dNxyNK7c78bLwvsdeMH5-19" source="rI7qGN4eYhpW-SmNuXcD-68" target="rI7qGN4eYhpW-SmNuXcD-69">
          <mxGeometry relative="1" as="geometry">
            <mxPoint x="270" y="100" as="sourcePoint" />
            <mxPoint x="270" y="150" as="targetPoint" />
          </mxGeometry>
        </mxCell>
        <mxCell id="rI7qGN4eYhpW-SmNuXcD-16" value="" style="edgeStyle=orthogonalEdgeStyle;shape=connector;rounded=0;orthogonalLoop=1;jettySize=auto;html=1;shadow=0;strokeColor=default;align=center;verticalAlign=middle;fontFamily=Helvetica;fontSize=11;fontColor=default;labelBackgroundColor=default;endArrow=classic;endFill=1;flowAnimation=0;dashed=1;exitX=0.5;exitY=1;exitDx=0;exitDy=0;" edge="1" parent="dNxyNK7c78bLwvsdeMH5-19" source="rI7qGN4eYhpW-SmNuXcD-70" target="rI7qGN4eYhpW-SmNuXcD-15">
          <mxGeometry relative="1" as="geometry">
            <mxPoint x="340" y="400.0000000000001" as="sourcePoint" />
          </mxGeometry>
        </mxCell>
        <mxCell id="dNxyNK7c78bLwvsdeMH5-21" value="API &amp;amp; Gateway" style="swimlane;html=1;startSize=20;horizontal=0;rounded=0;" parent="dNxyNK7c78bLwvsdeMH5-19" vertex="1">
          <mxGeometry x="20" y="180" width="900" height="270" as="geometry">
            <mxRectangle x="20" y="120" width="430" height="30" as="alternateBounds" />
          </mxGeometry>
        </mxCell>
        <mxCell id="rI7qGN4eYhpW-SmNuXcD-54" value="" style="edgeStyle=orthogonalEdgeStyle;shape=connector;rounded=0;orthogonalLoop=1;jettySize=auto;html=1;shadow=0;strokeColor=default;align=center;verticalAlign=middle;fontFamily=Helvetica;fontSize=11;fontColor=default;labelBackgroundColor=default;endArrow=classic;endFill=1;flowAnimation=0;" edge="1" parent="dNxyNK7c78bLwvsdeMH5-21" source="rI7qGN4eYhpW-SmNuXcD-10" target="rI7qGN4eYhpW-SmNuXcD-53">
          <mxGeometry relative="1" as="geometry" />
        </mxCell>
        <mxCell id="rI7qGN4eYhpW-SmNuXcD-10" value="&lt;font style=&quot;font-size: 9px;&quot;&gt;Validação de dados&lt;/font&gt;" style="whiteSpace=wrap;html=1;rounded=1;" vertex="1" parent="dNxyNK7c78bLwvsdeMH5-21">
          <mxGeometry x="360" y="30" width="80" height="60" as="geometry" />
        </mxCell>
        <mxCell id="rI7qGN4eYhpW-SmNuXcD-41" value="" style="edgeStyle=orthogonalEdgeStyle;shape=connector;rounded=0;orthogonalLoop=1;jettySize=auto;html=1;shadow=0;strokeColor=default;align=center;verticalAlign=middle;fontFamily=Helvetica;fontSize=11;fontColor=default;labelBackgroundColor=default;endArrow=none;endFill=0;flowAnimation=0;startArrow=classic;startFill=1;entryX=0.5;entryY=1;entryDx=0;entryDy=0;" edge="1" parent="dNxyNK7c78bLwvsdeMH5-21" source="rI7qGN4eYhpW-SmNuXcD-39" target="rI7qGN4eYhpW-SmNuXcD-69">
          <mxGeometry relative="1" as="geometry">
            <mxPoint x="160" y="100" as="targetPoint" />
          </mxGeometry>
        </mxCell>
        <mxCell id="rI7qGN4eYhpW-SmNuXcD-42" value="" style="edgeStyle=orthogonalEdgeStyle;shape=connector;rounded=0;orthogonalLoop=1;jettySize=auto;html=1;shadow=0;strokeColor=default;align=center;verticalAlign=middle;fontFamily=Helvetica;fontSize=11;fontColor=default;labelBackgroundColor=default;endArrow=classic;endFill=1;flowAnimation=0;" edge="1" parent="dNxyNK7c78bLwvsdeMH5-21" source="rI7qGN4eYhpW-SmNuXcD-39" target="rI7qGN4eYhpW-SmNuXcD-10">
          <mxGeometry relative="1" as="geometry">
            <Array as="points">
              <mxPoint x="270" y="130" />
              <mxPoint x="270" y="60" />
            </Array>
          </mxGeometry>
        </mxCell>
        <mxCell id="rI7qGN4eYhpW-SmNuXcD-39" value="" style="rhombus;whiteSpace=wrap;html=1;movableLabel=0;autosize=0;fixedWidth=0;resizeHeight=0;resizeWidth=0;treeFolding=0;treeMoving=0;double=0;" vertex="1" parent="dNxyNK7c78bLwvsdeMH5-21">
          <mxGeometry x="200" y="110" width="40" height="40" as="geometry" />
        </mxCell>
        <mxCell id="rI7qGN4eYhpW-SmNuXcD-43" value="&lt;blockquote style=&quot;margin-top: 0px; margin-right: 0px; margin-left: 0px;&quot;&gt;&lt;span style=&quot;background-color: light-dark(#ffffff, var(--ge-dark-color, #121212)); color: light-dark(rgb(0, 0, 0), rgb(255, 255, 255)); font-weight: normal; line-height: 90%;&quot;&gt;Chave ou dados manuais?&lt;/span&gt;&lt;/blockquote&gt;" style="text;html=1;whiteSpace=wrap;overflow=hidden;rounded=0;fontFamily=Helvetica;fontSize=9;fontColor=default;labelBackgroundColor=default;align=right;verticalAlign=middle;" vertex="1" parent="dNxyNK7c78bLwvsdeMH5-21">
          <mxGeometry x="120" y="115" width="70" height="30" as="geometry" />
        </mxCell>
        <mxCell id="rI7qGN4eYhpW-SmNuXcD-45" value="&lt;blockquote style=&quot;margin-top: 0px; margin-right: 0px; margin-left: 0px;&quot;&gt;&lt;span style=&quot;background-color: light-dark(#ffffff, var(--ge-dark-color, #121212)); color: light-dark(rgb(0, 0, 0), rgb(255, 255, 255)); font-weight: normal; line-height: 90%;&quot;&gt;Dados manuais&lt;/span&gt;&lt;/blockquote&gt;" style="text;html=1;whiteSpace=wrap;overflow=hidden;rounded=0;fontFamily=Helvetica;fontSize=9;fontColor=default;labelBackgroundColor=default;align=right;verticalAlign=middle;" vertex="1" parent="dNxyNK7c78bLwvsdeMH5-21">
          <mxGeometry x="290" y="30" width="40" height="30" as="geometry" />
        </mxCell>
        <mxCell id="rI7qGN4eYhpW-SmNuXcD-61" value="" style="edgeStyle=orthogonalEdgeStyle;shape=connector;rounded=0;orthogonalLoop=1;jettySize=auto;html=1;shadow=0;strokeColor=default;align=center;verticalAlign=middle;fontFamily=Helvetica;fontSize=11;fontColor=default;labelBackgroundColor=default;endArrow=classic;endFill=1;flowAnimation=0;" edge="1" parent="dNxyNK7c78bLwvsdeMH5-21" source="rI7qGN4eYhpW-SmNuXcD-53" target="rI7qGN4eYhpW-SmNuXcD-60">
          <mxGeometry relative="1" as="geometry" />
        </mxCell>
        <mxCell id="rI7qGN4eYhpW-SmNuXcD-53" value="" style="rhombus;whiteSpace=wrap;html=1;rounded=0;" vertex="1" parent="dNxyNK7c78bLwvsdeMH5-21">
          <mxGeometry x="500" y="110" width="40" height="40" as="geometry" />
        </mxCell>
        <mxCell id="rI7qGN4eYhpW-SmNuXcD-59" value="" style="edgeStyle=orthogonalEdgeStyle;shape=connector;rounded=0;orthogonalLoop=1;jettySize=auto;html=1;shadow=0;strokeColor=default;align=center;verticalAlign=middle;fontFamily=Helvetica;fontSize=11;fontColor=default;labelBackgroundColor=default;endArrow=classic;endFill=1;flowAnimation=0;" edge="1" parent="dNxyNK7c78bLwvsdeMH5-21" source="rI7qGN4eYhpW-SmNuXcD-57" target="rI7qGN4eYhpW-SmNuXcD-53">
          <mxGeometry relative="1" as="geometry" />
        </mxCell>
        <mxCell id="rI7qGN4eYhpW-SmNuXcD-57" value="&lt;font style=&quot;font-size: 9px;&quot;&gt;receive&lt;/font&gt;&lt;div style=&quot;font-size: 9px;&quot;&gt;&lt;font style=&quot;line-height: 9px;&quot;&gt;response&lt;/font&gt;&lt;/div&gt;" style="ellipse;whiteSpace=wrap;html=1;spacingTop=-5;" vertex="1" parent="dNxyNK7c78bLwvsdeMH5-21">
          <mxGeometry x="500" y="180" width="40" height="40" as="geometry" />
        </mxCell>
        <mxCell id="rI7qGN4eYhpW-SmNuXcD-60" value="&lt;font style=&quot;font-size: 9px;&quot;&gt;send&lt;/font&gt;&lt;div style=&quot;font-size: 9px;&quot;&gt;&lt;font style=&quot;line-height: 9px;&quot;&gt;request&lt;/font&gt;&lt;/div&gt;" style="ellipse;whiteSpace=wrap;html=1;rounded=0;" vertex="1" parent="dNxyNK7c78bLwvsdeMH5-21">
          <mxGeometry x="620" y="70" width="40" height="40" as="geometry" />
        </mxCell>
        <mxCell id="rI7qGN4eYhpW-SmNuXcD-67" value="&lt;blockquote style=&quot;margin-top: 0px; margin-right: 0px; margin-left: 0px;&quot;&gt;&lt;span style=&quot;background-color: light-dark(#ffffff, var(--ge-dark-color, #121212)); color: light-dark(rgb(0, 0, 0), rgb(255, 255, 255)); font-weight: normal; line-height: 90%;&quot;&gt;Chave&lt;/span&gt;&lt;/blockquote&gt;" style="text;html=1;whiteSpace=wrap;overflow=hidden;rounded=0;fontFamily=Helvetica;fontSize=9;fontColor=default;labelBackgroundColor=default;align=right;verticalAlign=middle;" vertex="1" parent="dNxyNK7c78bLwvsdeMH5-21">
          <mxGeometry x="220" y="170" width="40" height="20" as="geometry" />
        </mxCell>
        <mxCell id="rI7qGN4eYhpW-SmNuXcD-69" value="&lt;span style=&quot;font-size: 9px; background-color: rgb(236, 236, 236);&quot;&gt;receive&lt;/span&gt;&lt;br&gt;&lt;div style=&quot;font-size: 9px; background-color: rgb(236, 236, 236);&quot;&gt;&lt;font style=&quot;line-height: 9px;&quot;&gt;request&lt;/font&gt;&lt;/div&gt;" style="ellipse;shape=doubleEllipse;whiteSpace=wrap;html=1;aspect=fixed;fontFamily=Helvetica;fontSize=11;fontColor=default;labelBackgroundColor=default;" vertex="1" parent="dNxyNK7c78bLwvsdeMH5-21">
          <mxGeometry x="197.5" y="37.5" width="45" height="45" as="geometry" />
        </mxCell>
        <mxCell id="rI7qGN4eYhpW-SmNuXcD-71" value="" style="edgeStyle=orthogonalEdgeStyle;shape=connector;rounded=0;orthogonalLoop=1;jettySize=auto;html=1;shadow=0;strokeColor=default;align=center;verticalAlign=middle;fontFamily=Helvetica;fontSize=11;fontColor=default;labelBackgroundColor=default;endArrow=classic;endFill=1;flowAnimation=0;exitX=1;exitY=0.5;exitDx=0;exitDy=0;entryX=0;entryY=0.5;entryDx=0;entryDy=0;" edge="1" parent="dNxyNK7c78bLwvsdeMH5-21" source="rI7qGN4eYhpW-SmNuXcD-39" target="rI7qGN4eYhpW-SmNuXcD-70">
          <mxGeometry relative="1" as="geometry">
            <mxPoint x="260" y="310" as="sourcePoint" />
            <mxPoint x="320" y="380.0000000000001" as="targetPoint" />
            <Array as="points">
              <mxPoint x="270" y="130" />
              <mxPoint x="270" y="197" />
            </Array>
          </mxGeometry>
        </mxCell>
        <mxCell id="rI7qGN4eYhpW-SmNuXcD-70" value="&lt;span style=&quot;font-size: 9px; background-color: rgb(236, 236, 236);&quot;&gt;receive&lt;/span&gt;&lt;br&gt;&lt;div style=&quot;font-size: 9px; background-color: rgb(236, 236, 236);&quot;&gt;&lt;font style=&quot;line-height: 9px;&quot;&gt;request&lt;/font&gt;&lt;/div&gt;" style="ellipse;shape=doubleEllipse;whiteSpace=wrap;html=1;aspect=fixed;fontFamily=Helvetica;fontSize=11;fontColor=default;labelBackgroundColor=default;" vertex="1" parent="dNxyNK7c78bLwvsdeMH5-21">
          <mxGeometry x="297.5" y="175" width="45" height="45" as="geometry" />
        </mxCell>
        <mxCell id="dNxyNK7c78bLwvsdeMH5-22" value="DICT" style="swimlane;html=1;startSize=20;horizontal=0;" parent="dNxyNK7c78bLwvsdeMH5-19" vertex="1">
          <mxGeometry x="20" y="450" width="900" height="120" as="geometry" />
        </mxCell>
        <mxCell id="dNxyNK7c78bLwvsdeMH5-37" value="" style="edgeStyle=orthogonalEdgeStyle;rounded=0;orthogonalLoop=1;jettySize=auto;html=1;endArrow=classic;endFill=1;" parent="dNxyNK7c78bLwvsdeMH5-22" source="dNxyNK7c78bLwvsdeMH5-34" edge="1">
          <mxGeometry relative="1" as="geometry">
            <mxPoint x="360" y="50.000000000000114" as="targetPoint" />
          </mxGeometry>
        </mxCell>
        <mxCell id="rI7qGN4eYhpW-SmNuXcD-18" value="" style="edgeStyle=orthogonalEdgeStyle;shape=connector;rounded=0;orthogonalLoop=1;jettySize=auto;html=1;shadow=0;strokeColor=default;align=center;verticalAlign=middle;fontFamily=Helvetica;fontSize=11;fontColor=default;labelBackgroundColor=default;endArrow=classic;endFill=1;flowAnimation=0;" edge="1" parent="dNxyNK7c78bLwvsdeMH5-22" source="rI7qGN4eYhpW-SmNuXcD-15" target="rI7qGN4eYhpW-SmNuXcD-17">
          <mxGeometry relative="1" as="geometry" />
        </mxCell>
        <mxCell id="rI7qGN4eYhpW-SmNuXcD-15" value="&lt;font style=&quot;font-size: 9px;&quot;&gt;receive&lt;/font&gt;&lt;div style=&quot;font-size: 9px;&quot;&gt;&lt;font style=&quot;line-height: 9px;&quot;&gt;request&lt;/font&gt;&lt;/div&gt;" style="ellipse;whiteSpace=wrap;html=1;" vertex="1" parent="dNxyNK7c78bLwvsdeMH5-22">
          <mxGeometry x="300" y="40" width="40" height="40" as="geometry" />
        </mxCell>
        <mxCell id="rI7qGN4eYhpW-SmNuXcD-49" value="" style="edgeStyle=orthogonalEdgeStyle;shape=connector;rounded=0;orthogonalLoop=1;jettySize=auto;html=1;shadow=0;strokeColor=default;align=center;verticalAlign=middle;fontFamily=Helvetica;fontSize=11;fontColor=default;labelBackgroundColor=default;endArrow=none;endFill=0;flowAnimation=0;" edge="1" parent="dNxyNK7c78bLwvsdeMH5-22" source="rI7qGN4eYhpW-SmNuXcD-17">
          <mxGeometry relative="1" as="geometry">
            <mxPoint x="480.0000297265383" y="60.0344827586207" as="targetPoint" />
          </mxGeometry>
        </mxCell>
        <mxCell id="rI7qGN4eYhpW-SmNuXcD-17" value="&lt;font style=&quot;font-size: 9px; line-height: 90%;&quot;&gt;Consulta e valida os dados&lt;/font&gt;" style="rounded=1;whiteSpace=wrap;html=1;" vertex="1" parent="dNxyNK7c78bLwvsdeMH5-22">
          <mxGeometry x="380" y="30" width="80" height="60" as="geometry" />
        </mxCell>
        <mxCell id="rI7qGN4eYhpW-SmNuXcD-51" value="" style="edgeStyle=orthogonalEdgeStyle;shape=connector;rounded=0;orthogonalLoop=1;jettySize=auto;html=1;shadow=0;strokeColor=default;align=center;verticalAlign=middle;fontFamily=Helvetica;fontSize=11;fontColor=default;labelBackgroundColor=default;endArrow=none;endFill=0;flowAnimation=0;startArrow=classic;startFill=1;" edge="1" parent="dNxyNK7c78bLwvsdeMH5-22" source="rI7qGN4eYhpW-SmNuXcD-50" target="rI7qGN4eYhpW-SmNuXcD-17">
          <mxGeometry relative="1" as="geometry" />
        </mxCell>
        <mxCell id="rI7qGN4eYhpW-SmNuXcD-50" value="&lt;font style=&quot;font-size: 9px;&quot;&gt;send&lt;/font&gt;&lt;div style=&quot;font-size: 9px;&quot;&gt;&lt;font style=&quot;line-height: 9px;&quot;&gt;response&lt;/font&gt;&lt;/div&gt;" style="ellipse;whiteSpace=wrap;html=1;spacingTop=-5;" vertex="1" parent="dNxyNK7c78bLwvsdeMH5-22">
          <mxGeometry x="500" y="40" width="40" height="40" as="geometry" />
        </mxCell>
        <mxCell id="rI7qGN4eYhpW-SmNuXcD-52" style="edgeStyle=orthogonalEdgeStyle;shape=connector;rounded=0;orthogonalLoop=1;jettySize=auto;html=1;exitX=0.5;exitY=1;exitDx=0;exitDy=0;shadow=0;strokeColor=default;align=center;verticalAlign=middle;fontFamily=Helvetica;fontSize=11;fontColor=default;labelBackgroundColor=default;endArrow=none;endFill=0;flowAnimation=0;" edge="1" parent="dNxyNK7c78bLwvsdeMH5-22" source="rI7qGN4eYhpW-SmNuXcD-50" target="rI7qGN4eYhpW-SmNuXcD-50">
          <mxGeometry relative="1" as="geometry" />
        </mxCell>
        <mxCell id="rI7qGN4eYhpW-SmNuXcD-58" value="" style="edgeStyle=orthogonalEdgeStyle;shape=connector;rounded=0;orthogonalLoop=1;jettySize=auto;html=1;shadow=0;strokeColor=default;align=center;verticalAlign=middle;fontFamily=Helvetica;fontSize=11;fontColor=default;labelBackgroundColor=default;endArrow=classic;endFill=1;flowAnimation=0;dashed=1;" edge="1" parent="dNxyNK7c78bLwvsdeMH5-19" source="rI7qGN4eYhpW-SmNuXcD-50" target="rI7qGN4eYhpW-SmNuXcD-57">
          <mxGeometry relative="1" as="geometry" />
        </mxCell>
        <mxCell id="rI7qGN4eYhpW-SmNuXcD-63" value="" style="edgeStyle=orthogonalEdgeStyle;shape=connector;rounded=0;orthogonalLoop=1;jettySize=auto;html=1;shadow=0;strokeColor=default;align=center;verticalAlign=middle;fontFamily=Helvetica;fontSize=11;fontColor=default;labelBackgroundColor=default;endArrow=classic;endFill=1;flowAnimation=0;dashed=1;" edge="1" parent="dNxyNK7c78bLwvsdeMH5-19" source="rI7qGN4eYhpW-SmNuXcD-60" target="rI7qGN4eYhpW-SmNuXcD-62">
          <mxGeometry relative="1" as="geometry" />
        </mxCell>
      </root>
    </mxGraphModel>
  </diagram>
  <diagram id="Eq-1yXzN6FhlGCtcyDWB" name="Página-2">
    <mxGraphModel dx="1678" dy="924" grid="1" gridSize="10" guides="1" tooltips="1" connect="1" arrows="1" fold="1" page="1" pageScale="1" pageWidth="827" pageHeight="1169" math="0" shadow="0">
      <root>
        <mxCell id="0" />
        <mxCell id="1" parent="0" />
        <mxCell id="uYxavptV-ACekzpgEQzK-1" value="Payment system" style="swimlane;html=1;childLayout=stackLayout;resizeParent=1;resizeParentMax=0;horizontal=0;startSize=20;horizontalStack=0;" vertex="1" parent="1">
          <mxGeometry x="90" y="350" width="920" height="570" as="geometry" />
        </mxCell>
        <mxCell id="uYxavptV-ACekzpgEQzK-2" value="Client" style="swimlane;html=1;startSize=20;horizontal=0;" vertex="1" parent="uYxavptV-ACekzpgEQzK-1">
          <mxGeometry x="20" width="900" height="180" as="geometry" />
        </mxCell>
        <mxCell id="uYxavptV-ACekzpgEQzK-3" value="" style="edgeStyle=orthogonalEdgeStyle;rounded=0;orthogonalLoop=1;jettySize=auto;html=1;" edge="1" parent="uYxavptV-ACekzpgEQzK-2" source="uYxavptV-ACekzpgEQzK-4" target="uYxavptV-ACekzpgEQzK-5">
          <mxGeometry relative="1" as="geometry" />
        </mxCell>
        <mxCell id="uYxavptV-ACekzpgEQzK-4" value="&lt;font style=&quot;font-size: 9px;&quot;&gt;Início&lt;/font&gt;" style="ellipse;whiteSpace=wrap;html=1;strokeWidth=3;" vertex="1" parent="uYxavptV-ACekzpgEQzK-2">
          <mxGeometry x="40" y="40" width="40" height="40" as="geometry" />
        </mxCell>
        <mxCell id="uYxavptV-ACekzpgEQzK-5" value="&lt;font style=&quot;font-size: 9px;&quot;&gt;Cliente preenche&lt;/font&gt;&lt;div&gt;&lt;font style=&quot;font-size: 9px;&quot;&gt;os dados&lt;/font&gt;&lt;/div&gt;" style="rounded=1;whiteSpace=wrap;html=1;fontFamily=Helvetica;fontSize=12;fontColor=#000000;align=center;" vertex="1" parent="uYxavptV-ACekzpgEQzK-2">
          <mxGeometry x="100" y="30" width="80" height="60" as="geometry" />
        </mxCell>
        <mxCell id="uYxavptV-ACekzpgEQzK-6" value="" style="edgeStyle=orthogonalEdgeStyle;rounded=0;orthogonalLoop=1;jettySize=auto;html=1;endArrow=classic;endFill=1;exitX=1;exitY=0.5;exitDx=0;exitDy=0;" edge="1" parent="uYxavptV-ACekzpgEQzK-2" source="uYxavptV-ACekzpgEQzK-12" target="uYxavptV-ACekzpgEQzK-9">
          <mxGeometry relative="1" as="geometry">
            <mxPoint x="860" y="60" as="sourcePoint" />
          </mxGeometry>
        </mxCell>
        <mxCell id="uYxavptV-ACekzpgEQzK-7" value="" style="edgeStyle=orthogonalEdgeStyle;rounded=0;orthogonalLoop=1;jettySize=auto;html=1;endArrow=classic;endFill=1;exitX=1;exitY=0.5;exitDx=0;exitDy=0;entryX=0;entryY=0.5;entryDx=0;entryDy=0;" edge="1" parent="uYxavptV-ACekzpgEQzK-2" source="uYxavptV-ACekzpgEQzK-5" target="uYxavptV-ACekzpgEQzK-13">
          <mxGeometry relative="1" as="geometry">
            <mxPoint x="210" y="190" as="sourcePoint" />
            <mxPoint x="190" y="40" as="targetPoint" />
          </mxGeometry>
        </mxCell>
        <mxCell id="uYxavptV-ACekzpgEQzK-8" value="" style="edgeStyle=orthogonalEdgeStyle;rounded=0;orthogonalLoop=1;jettySize=auto;html=1;endArrow=classic;endFill=1;" edge="1" parent="uYxavptV-ACekzpgEQzK-2">
          <mxGeometry relative="1" as="geometry">
            <mxPoint x="710" y="270.0344827586207" as="sourcePoint" />
          </mxGeometry>
        </mxCell>
        <mxCell id="uYxavptV-ACekzpgEQzK-9" value="&lt;font style=&quot;font-size: 9px;&quot;&gt;Fim&lt;/font&gt;" style="ellipse;whiteSpace=wrap;html=1;strokeWidth=3;" vertex="1" parent="uYxavptV-ACekzpgEQzK-2">
          <mxGeometry x="820" y="40" width="40" height="40" as="geometry" />
        </mxCell>
        <mxCell id="uYxavptV-ACekzpgEQzK-10" value="" style="edgeStyle=orthogonalEdgeStyle;shape=connector;rounded=0;orthogonalLoop=1;jettySize=auto;html=1;shadow=0;strokeColor=default;align=center;verticalAlign=middle;fontFamily=Helvetica;fontSize=11;fontColor=default;labelBackgroundColor=default;endArrow=classic;endFill=1;flowAnimation=0;" edge="1" parent="uYxavptV-ACekzpgEQzK-2" source="uYxavptV-ACekzpgEQzK-11" target="uYxavptV-ACekzpgEQzK-12">
          <mxGeometry relative="1" as="geometry" />
        </mxCell>
        <mxCell id="uYxavptV-ACekzpgEQzK-11" value="&lt;font style=&quot;font-size: 9px;&quot;&gt;receive&lt;/font&gt;&lt;div style=&quot;font-size: 9px;&quot;&gt;&lt;font style=&quot;line-height: 9px;&quot;&gt;request&lt;/font&gt;&lt;/div&gt;" style="ellipse;whiteSpace=wrap;html=1;rounded=0;" vertex="1" parent="uYxavptV-ACekzpgEQzK-2">
          <mxGeometry x="620" y="40" width="40" height="40" as="geometry" />
        </mxCell>
        <mxCell id="uYxavptV-ACekzpgEQzK-12" value="&lt;font style=&quot;font-size: 9px;&quot;&gt;Confirma a transação&lt;/font&gt;" style="whiteSpace=wrap;html=1;rounded=1;" vertex="1" parent="uYxavptV-ACekzpgEQzK-2">
          <mxGeometry x="700" y="30" width="80" height="60" as="geometry" />
        </mxCell>
        <mxCell id="uYxavptV-ACekzpgEQzK-13" value="&lt;font style=&quot;font-size: 9px; background-color: rgb(236, 236, 236);&quot;&gt;send&lt;/font&gt;&lt;div style=&quot;font-size: 9px; background-color: rgb(236, 236, 236);&quot;&gt;&lt;font style=&quot;line-height: 9px;&quot;&gt;request&lt;/font&gt;&lt;/div&gt;" style="ellipse;shape=doubleEllipse;whiteSpace=wrap;html=1;aspect=fixed;fontFamily=Helvetica;fontSize=11;fontColor=default;labelBackgroundColor=default;" vertex="1" parent="uYxavptV-ACekzpgEQzK-2">
          <mxGeometry x="197.5" y="37.5" width="45" height="45" as="geometry" />
        </mxCell>
        <mxCell id="uYxavptV-ACekzpgEQzK-14" value="" style="edgeStyle=orthogonalEdgeStyle;shape=connector;rounded=0;orthogonalLoop=1;jettySize=auto;html=1;shadow=0;strokeColor=default;align=center;verticalAlign=middle;fontFamily=Helvetica;fontSize=11;fontColor=default;labelBackgroundColor=default;endArrow=classic;endFill=1;flowAnimation=0;dashed=1;exitX=0.5;exitY=1;exitDx=0;exitDy=0;entryX=0.5;entryY=0;entryDx=0;entryDy=0;" edge="1" parent="uYxavptV-ACekzpgEQzK-1" source="uYxavptV-ACekzpgEQzK-13" target="uYxavptV-ACekzpgEQzK-30">
          <mxGeometry relative="1" as="geometry">
            <mxPoint x="270" y="100" as="sourcePoint" />
            <mxPoint x="270" y="150" as="targetPoint" />
          </mxGeometry>
        </mxCell>
        <mxCell id="uYxavptV-ACekzpgEQzK-15" value="" style="edgeStyle=orthogonalEdgeStyle;shape=connector;rounded=0;orthogonalLoop=1;jettySize=auto;html=1;shadow=0;strokeColor=default;align=center;verticalAlign=middle;fontFamily=Helvetica;fontSize=11;fontColor=default;labelBackgroundColor=default;endArrow=classic;endFill=1;flowAnimation=0;dashed=1;exitX=0.5;exitY=1;exitDx=0;exitDy=0;" edge="1" parent="uYxavptV-ACekzpgEQzK-1" source="uYxavptV-ACekzpgEQzK-32" target="uYxavptV-ACekzpgEQzK-36">
          <mxGeometry relative="1" as="geometry">
            <mxPoint x="340" y="400.0000000000001" as="sourcePoint" />
          </mxGeometry>
        </mxCell>
        <mxCell id="uYxavptV-ACekzpgEQzK-16" value="API &amp;amp; Gateway" style="swimlane;html=1;startSize=20;horizontal=0;rounded=0;" vertex="1" parent="uYxavptV-ACekzpgEQzK-1">
          <mxGeometry x="20" y="180" width="900" height="270" as="geometry">
            <mxRectangle x="20" y="120" width="430" height="30" as="alternateBounds" />
          </mxGeometry>
        </mxCell>
        <mxCell id="uYxavptV-ACekzpgEQzK-17" value="" style="edgeStyle=orthogonalEdgeStyle;shape=connector;rounded=0;orthogonalLoop=1;jettySize=auto;html=1;shadow=0;strokeColor=default;align=center;verticalAlign=middle;fontFamily=Helvetica;fontSize=11;fontColor=default;labelBackgroundColor=default;endArrow=classic;endFill=1;flowAnimation=0;" edge="1" parent="uYxavptV-ACekzpgEQzK-16" source="uYxavptV-ACekzpgEQzK-18" target="uYxavptV-ACekzpgEQzK-25">
          <mxGeometry relative="1" as="geometry" />
        </mxCell>
        <mxCell id="uYxavptV-ACekzpgEQzK-18" value="&lt;font style=&quot;font-size: 9px;&quot;&gt;Validação de dados&lt;/font&gt;" style="whiteSpace=wrap;html=1;rounded=1;" vertex="1" parent="uYxavptV-ACekzpgEQzK-16">
          <mxGeometry x="360" y="30" width="80" height="60" as="geometry" />
        </mxCell>
        <mxCell id="uYxavptV-ACekzpgEQzK-19" value="" style="edgeStyle=orthogonalEdgeStyle;shape=connector;rounded=0;orthogonalLoop=1;jettySize=auto;html=1;shadow=0;strokeColor=default;align=center;verticalAlign=middle;fontFamily=Helvetica;fontSize=11;fontColor=default;labelBackgroundColor=default;endArrow=none;endFill=0;flowAnimation=0;startArrow=classic;startFill=1;entryX=0.5;entryY=1;entryDx=0;entryDy=0;" edge="1" parent="uYxavptV-ACekzpgEQzK-16" source="uYxavptV-ACekzpgEQzK-21" target="uYxavptV-ACekzpgEQzK-30">
          <mxGeometry relative="1" as="geometry">
            <mxPoint x="160" y="100" as="targetPoint" />
          </mxGeometry>
        </mxCell>
        <mxCell id="uYxavptV-ACekzpgEQzK-20" value="" style="edgeStyle=orthogonalEdgeStyle;shape=connector;rounded=0;orthogonalLoop=1;jettySize=auto;html=1;shadow=0;strokeColor=default;align=center;verticalAlign=middle;fontFamily=Helvetica;fontSize=11;fontColor=default;labelBackgroundColor=default;endArrow=classic;endFill=1;flowAnimation=0;" edge="1" parent="uYxavptV-ACekzpgEQzK-16" source="uYxavptV-ACekzpgEQzK-21" target="uYxavptV-ACekzpgEQzK-18">
          <mxGeometry relative="1" as="geometry">
            <Array as="points">
              <mxPoint x="270" y="130" />
              <mxPoint x="270" y="60" />
            </Array>
          </mxGeometry>
        </mxCell>
        <mxCell id="uYxavptV-ACekzpgEQzK-21" value="" style="rhombus;whiteSpace=wrap;html=1;movableLabel=0;autosize=0;fixedWidth=0;resizeHeight=0;resizeWidth=0;treeFolding=0;treeMoving=0;double=0;" vertex="1" parent="uYxavptV-ACekzpgEQzK-16">
          <mxGeometry x="200" y="110" width="40" height="40" as="geometry" />
        </mxCell>
        <mxCell id="uYxavptV-ACekzpgEQzK-22" value="&lt;blockquote style=&quot;margin-top: 0px; margin-right: 0px; margin-left: 0px;&quot;&gt;&lt;span style=&quot;background-color: light-dark(#ffffff, var(--ge-dark-color, #121212)); color: light-dark(rgb(0, 0, 0), rgb(255, 255, 255)); font-weight: normal; line-height: 90%;&quot;&gt;Chave ou dados manuais?&lt;/span&gt;&lt;/blockquote&gt;" style="text;html=1;whiteSpace=wrap;overflow=hidden;rounded=0;fontFamily=Helvetica;fontSize=9;fontColor=default;labelBackgroundColor=default;align=right;verticalAlign=middle;" vertex="1" parent="uYxavptV-ACekzpgEQzK-16">
          <mxGeometry x="120" y="115" width="70" height="30" as="geometry" />
        </mxCell>
        <mxCell id="uYxavptV-ACekzpgEQzK-23" value="&lt;blockquote style=&quot;margin-top: 0px; margin-right: 0px; margin-left: 0px;&quot;&gt;&lt;span style=&quot;background-color: light-dark(#ffffff, var(--ge-dark-color, #121212)); color: light-dark(rgb(0, 0, 0), rgb(255, 255, 255)); font-weight: normal; line-height: 90%;&quot;&gt;Dados manuais&lt;/span&gt;&lt;/blockquote&gt;" style="text;html=1;whiteSpace=wrap;overflow=hidden;rounded=0;fontFamily=Helvetica;fontSize=9;fontColor=default;labelBackgroundColor=default;align=right;verticalAlign=middle;" vertex="1" parent="uYxavptV-ACekzpgEQzK-16">
          <mxGeometry x="290" y="30" width="40" height="30" as="geometry" />
        </mxCell>
        <mxCell id="uYxavptV-ACekzpgEQzK-24" value="" style="edgeStyle=orthogonalEdgeStyle;shape=connector;rounded=0;orthogonalLoop=1;jettySize=auto;html=1;shadow=0;strokeColor=default;align=center;verticalAlign=middle;fontFamily=Helvetica;fontSize=11;fontColor=default;labelBackgroundColor=default;endArrow=classic;endFill=1;flowAnimation=0;" edge="1" parent="uYxavptV-ACekzpgEQzK-16" source="uYxavptV-ACekzpgEQzK-25" target="uYxavptV-ACekzpgEQzK-28">
          <mxGeometry relative="1" as="geometry" />
        </mxCell>
        <mxCell id="uYxavptV-ACekzpgEQzK-25" value="" style="rhombus;whiteSpace=wrap;html=1;rounded=0;" vertex="1" parent="uYxavptV-ACekzpgEQzK-16">
          <mxGeometry x="500" y="110" width="40" height="40" as="geometry" />
        </mxCell>
        <mxCell id="uYxavptV-ACekzpgEQzK-26" value="" style="edgeStyle=orthogonalEdgeStyle;shape=connector;rounded=0;orthogonalLoop=1;jettySize=auto;html=1;shadow=0;strokeColor=default;align=center;verticalAlign=middle;fontFamily=Helvetica;fontSize=11;fontColor=default;labelBackgroundColor=default;endArrow=classic;endFill=1;flowAnimation=0;" edge="1" parent="uYxavptV-ACekzpgEQzK-16" source="uYxavptV-ACekzpgEQzK-27" target="uYxavptV-ACekzpgEQzK-25">
          <mxGeometry relative="1" as="geometry" />
        </mxCell>
        <mxCell id="uYxavptV-ACekzpgEQzK-27" value="&lt;font style=&quot;font-size: 9px;&quot;&gt;receive&lt;/font&gt;&lt;div style=&quot;font-size: 9px;&quot;&gt;&lt;font style=&quot;line-height: 9px;&quot;&gt;response&lt;/font&gt;&lt;/div&gt;" style="ellipse;whiteSpace=wrap;html=1;spacingTop=-5;" vertex="1" parent="uYxavptV-ACekzpgEQzK-16">
          <mxGeometry x="500" y="180" width="40" height="40" as="geometry" />
        </mxCell>
        <mxCell id="uYxavptV-ACekzpgEQzK-28" value="&lt;font style=&quot;font-size: 9px;&quot;&gt;send&lt;/font&gt;&lt;div style=&quot;font-size: 9px;&quot;&gt;&lt;font style=&quot;line-height: 9px;&quot;&gt;request&lt;/font&gt;&lt;/div&gt;" style="ellipse;whiteSpace=wrap;html=1;rounded=0;" vertex="1" parent="uYxavptV-ACekzpgEQzK-16">
          <mxGeometry x="620" y="70" width="40" height="40" as="geometry" />
        </mxCell>
        <mxCell id="uYxavptV-ACekzpgEQzK-29" value="&lt;blockquote style=&quot;margin-top: 0px; margin-right: 0px; margin-left: 0px;&quot;&gt;&lt;span style=&quot;background-color: light-dark(#ffffff, var(--ge-dark-color, #121212)); color: light-dark(rgb(0, 0, 0), rgb(255, 255, 255)); font-weight: normal; line-height: 90%;&quot;&gt;Chave&lt;/span&gt;&lt;/blockquote&gt;" style="text;html=1;whiteSpace=wrap;overflow=hidden;rounded=0;fontFamily=Helvetica;fontSize=9;fontColor=default;labelBackgroundColor=default;align=right;verticalAlign=middle;" vertex="1" parent="uYxavptV-ACekzpgEQzK-16">
          <mxGeometry x="220" y="170" width="40" height="20" as="geometry" />
        </mxCell>
        <mxCell id="uYxavptV-ACekzpgEQzK-30" value="&lt;span style=&quot;font-size: 9px; background-color: rgb(236, 236, 236);&quot;&gt;receive&lt;/span&gt;&lt;br&gt;&lt;div style=&quot;font-size: 9px; background-color: rgb(236, 236, 236);&quot;&gt;&lt;font style=&quot;line-height: 9px;&quot;&gt;request&lt;/font&gt;&lt;/div&gt;" style="ellipse;shape=doubleEllipse;whiteSpace=wrap;html=1;aspect=fixed;fontFamily=Helvetica;fontSize=11;fontColor=default;labelBackgroundColor=default;" vertex="1" parent="uYxavptV-ACekzpgEQzK-16">
          <mxGeometry x="197.5" y="37.5" width="45" height="45" as="geometry" />
        </mxCell>
        <mxCell id="uYxavptV-ACekzpgEQzK-31" value="" style="edgeStyle=orthogonalEdgeStyle;shape=connector;rounded=0;orthogonalLoop=1;jettySize=auto;html=1;shadow=0;strokeColor=default;align=center;verticalAlign=middle;fontFamily=Helvetica;fontSize=11;fontColor=default;labelBackgroundColor=default;endArrow=classic;endFill=1;flowAnimation=0;exitX=1;exitY=0.5;exitDx=0;exitDy=0;entryX=0;entryY=0.5;entryDx=0;entryDy=0;" edge="1" parent="uYxavptV-ACekzpgEQzK-16" source="uYxavptV-ACekzpgEQzK-21" target="uYxavptV-ACekzpgEQzK-32">
          <mxGeometry relative="1" as="geometry">
            <mxPoint x="260" y="310" as="sourcePoint" />
            <mxPoint x="320" y="380.0000000000001" as="targetPoint" />
            <Array as="points">
              <mxPoint x="270" y="130" />
              <mxPoint x="270" y="197" />
            </Array>
          </mxGeometry>
        </mxCell>
        <mxCell id="uYxavptV-ACekzpgEQzK-32" value="&lt;span style=&quot;font-size: 9px; background-color: rgb(236, 236, 236);&quot;&gt;receive&lt;/span&gt;&lt;br&gt;&lt;div style=&quot;font-size: 9px; background-color: rgb(236, 236, 236);&quot;&gt;&lt;font style=&quot;line-height: 9px;&quot;&gt;request&lt;/font&gt;&lt;/div&gt;" style="ellipse;shape=doubleEllipse;whiteSpace=wrap;html=1;aspect=fixed;fontFamily=Helvetica;fontSize=11;fontColor=default;labelBackgroundColor=default;" vertex="1" parent="uYxavptV-ACekzpgEQzK-16">
          <mxGeometry x="297.5" y="175" width="45" height="45" as="geometry" />
        </mxCell>
        <mxCell id="uYxavptV-ACekzpgEQzK-33" value="DICT" style="swimlane;html=1;startSize=20;horizontal=0;" vertex="1" parent="uYxavptV-ACekzpgEQzK-1">
          <mxGeometry x="20" y="450" width="900" height="120" as="geometry" />
        </mxCell>
        <mxCell id="uYxavptV-ACekzpgEQzK-34" value="" style="edgeStyle=orthogonalEdgeStyle;rounded=0;orthogonalLoop=1;jettySize=auto;html=1;endArrow=classic;endFill=1;" edge="1" parent="uYxavptV-ACekzpgEQzK-33">
          <mxGeometry relative="1" as="geometry">
            <mxPoint x="360" y="50.000000000000114" as="targetPoint" />
          </mxGeometry>
        </mxCell>
        <mxCell id="uYxavptV-ACekzpgEQzK-35" value="" style="edgeStyle=orthogonalEdgeStyle;shape=connector;rounded=0;orthogonalLoop=1;jettySize=auto;html=1;shadow=0;strokeColor=default;align=center;verticalAlign=middle;fontFamily=Helvetica;fontSize=11;fontColor=default;labelBackgroundColor=default;endArrow=classic;endFill=1;flowAnimation=0;" edge="1" parent="uYxavptV-ACekzpgEQzK-33" source="uYxavptV-ACekzpgEQzK-36" target="uYxavptV-ACekzpgEQzK-38">
          <mxGeometry relative="1" as="geometry" />
        </mxCell>
        <mxCell id="uYxavptV-ACekzpgEQzK-36" value="&lt;font style=&quot;font-size: 9px;&quot;&gt;receive&lt;/font&gt;&lt;div style=&quot;font-size: 9px;&quot;&gt;&lt;font style=&quot;line-height: 9px;&quot;&gt;request&lt;/font&gt;&lt;/div&gt;" style="ellipse;whiteSpace=wrap;html=1;" vertex="1" parent="uYxavptV-ACekzpgEQzK-33">
          <mxGeometry x="300" y="40" width="40" height="40" as="geometry" />
        </mxCell>
        <mxCell id="uYxavptV-ACekzpgEQzK-37" value="" style="edgeStyle=orthogonalEdgeStyle;shape=connector;rounded=0;orthogonalLoop=1;jettySize=auto;html=1;shadow=0;strokeColor=default;align=center;verticalAlign=middle;fontFamily=Helvetica;fontSize=11;fontColor=default;labelBackgroundColor=default;endArrow=none;endFill=0;flowAnimation=0;" edge="1" parent="uYxavptV-ACekzpgEQzK-33" source="uYxavptV-ACekzpgEQzK-38">
          <mxGeometry relative="1" as="geometry">
            <mxPoint x="480.0000297265383" y="60.0344827586207" as="targetPoint" />
          </mxGeometry>
        </mxCell>
        <mxCell id="uYxavptV-ACekzpgEQzK-38" value="&lt;font style=&quot;font-size: 9px; line-height: 90%;&quot;&gt;Consulta e valida os dados&lt;/font&gt;" style="rounded=1;whiteSpace=wrap;html=1;" vertex="1" parent="uYxavptV-ACekzpgEQzK-33">
          <mxGeometry x="380" y="30" width="80" height="60" as="geometry" />
        </mxCell>
        <mxCell id="uYxavptV-ACekzpgEQzK-39" value="" style="edgeStyle=orthogonalEdgeStyle;shape=connector;rounded=0;orthogonalLoop=1;jettySize=auto;html=1;shadow=0;strokeColor=default;align=center;verticalAlign=middle;fontFamily=Helvetica;fontSize=11;fontColor=default;labelBackgroundColor=default;endArrow=none;endFill=0;flowAnimation=0;startArrow=classic;startFill=1;" edge="1" parent="uYxavptV-ACekzpgEQzK-33" source="uYxavptV-ACekzpgEQzK-40" target="uYxavptV-ACekzpgEQzK-38">
          <mxGeometry relative="1" as="geometry" />
        </mxCell>
        <mxCell id="uYxavptV-ACekzpgEQzK-40" value="&lt;font style=&quot;font-size: 9px;&quot;&gt;send&lt;/font&gt;&lt;div style=&quot;font-size: 9px;&quot;&gt;&lt;font style=&quot;line-height: 9px;&quot;&gt;response&lt;/font&gt;&lt;/div&gt;" style="ellipse;whiteSpace=wrap;html=1;spacingTop=-5;" vertex="1" parent="uYxavptV-ACekzpgEQzK-33">
          <mxGeometry x="500" y="40" width="40" height="40" as="geometry" />
        </mxCell>
        <mxCell id="uYxavptV-ACekzpgEQzK-41" style="edgeStyle=orthogonalEdgeStyle;shape=connector;rounded=0;orthogonalLoop=1;jettySize=auto;html=1;exitX=0.5;exitY=1;exitDx=0;exitDy=0;shadow=0;strokeColor=default;align=center;verticalAlign=middle;fontFamily=Helvetica;fontSize=11;fontColor=default;labelBackgroundColor=default;endArrow=none;endFill=0;flowAnimation=0;" edge="1" parent="uYxavptV-ACekzpgEQzK-33" source="uYxavptV-ACekzpgEQzK-40" target="uYxavptV-ACekzpgEQzK-40">
          <mxGeometry relative="1" as="geometry" />
        </mxCell>
        <mxCell id="uYxavptV-ACekzpgEQzK-42" value="" style="edgeStyle=orthogonalEdgeStyle;shape=connector;rounded=0;orthogonalLoop=1;jettySize=auto;html=1;shadow=0;strokeColor=default;align=center;verticalAlign=middle;fontFamily=Helvetica;fontSize=11;fontColor=default;labelBackgroundColor=default;endArrow=classic;endFill=1;flowAnimation=0;dashed=1;" edge="1" parent="uYxavptV-ACekzpgEQzK-1" source="uYxavptV-ACekzpgEQzK-40" target="uYxavptV-ACekzpgEQzK-27">
          <mxGeometry relative="1" as="geometry" />
        </mxCell>
        <mxCell id="uYxavptV-ACekzpgEQzK-43" value="" style="edgeStyle=orthogonalEdgeStyle;shape=connector;rounded=0;orthogonalLoop=1;jettySize=auto;html=1;shadow=0;strokeColor=default;align=center;verticalAlign=middle;fontFamily=Helvetica;fontSize=11;fontColor=default;labelBackgroundColor=default;endArrow=classic;endFill=1;flowAnimation=0;dashed=1;" edge="1" parent="uYxavptV-ACekzpgEQzK-1" source="uYxavptV-ACekzpgEQzK-28" target="uYxavptV-ACekzpgEQzK-11">
          <mxGeometry relative="1" as="geometry" />
        </mxCell>
      </root>
    </mxGraphModel>
  </diagram>
  <diagram id="D5lPy0ntLPWyyPsWSpxB" name="Página-3">
    <mxGraphModel dx="1678" dy="2093" grid="1" gridSize="10" guides="1" tooltips="1" connect="1" arrows="1" fold="1" page="1" pageScale="1" pageWidth="827" pageHeight="1169" math="0" shadow="0">
      <root>
        <mxCell id="0" />
        <mxCell id="1" parent="0" />
        <mxCell id="1Hu_FpD2nitlBrhvJcuN-1" value="Payment system" style="swimlane;html=1;childLayout=stackLayout;resizeParent=1;resizeParentMax=0;horizontal=0;startSize=20;horizontalStack=0;" vertex="1" parent="1">
          <mxGeometry x="10" y="-1150" width="870" height="780" as="geometry" />
        </mxCell>
        <mxCell id="1Hu_FpD2nitlBrhvJcuN-14" value="" style="edgeStyle=orthogonalEdgeStyle;shape=connector;rounded=0;orthogonalLoop=1;jettySize=auto;html=1;shadow=0;strokeColor=default;align=center;verticalAlign=middle;fontFamily=Helvetica;fontSize=11;fontColor=default;labelBackgroundColor=default;endArrow=classic;endFill=1;flowAnimation=0;dashed=1;exitX=0.5;exitY=1;exitDx=0;exitDy=0;entryX=0.5;entryY=0;entryDx=0;entryDy=0;" edge="1" parent="1Hu_FpD2nitlBrhvJcuN-1" source="1Hu_FpD2nitlBrhvJcuN-13" target="1Hu_FpD2nitlBrhvJcuN-30">
          <mxGeometry relative="1" as="geometry">
            <mxPoint x="220" y="100" as="sourcePoint" />
            <mxPoint x="220" y="150" as="targetPoint" />
          </mxGeometry>
        </mxCell>
        <mxCell id="1Hu_FpD2nitlBrhvJcuN-2" value="Client" style="swimlane;html=1;startSize=20;horizontal=0;" vertex="1" parent="1Hu_FpD2nitlBrhvJcuN-1">
          <mxGeometry x="20" width="850" height="270" as="geometry" />
        </mxCell>
        <mxCell id="1Hu_FpD2nitlBrhvJcuN-3" value="" style="edgeStyle=orthogonalEdgeStyle;rounded=0;orthogonalLoop=1;jettySize=auto;html=1;" edge="1" parent="1Hu_FpD2nitlBrhvJcuN-2" source="1Hu_FpD2nitlBrhvJcuN-4" target="1Hu_FpD2nitlBrhvJcuN-5">
          <mxGeometry relative="1" as="geometry" />
        </mxCell>
        <mxCell id="1Hu_FpD2nitlBrhvJcuN-4" value="&lt;font style=&quot;font-size: 9px;&quot;&gt;Início&lt;/font&gt;" style="ellipse;whiteSpace=wrap;html=1;strokeWidth=3;" vertex="1" parent="1Hu_FpD2nitlBrhvJcuN-2">
          <mxGeometry x="60" y="18" width="40" height="40" as="geometry" />
        </mxCell>
        <mxCell id="1Hu_FpD2nitlBrhvJcuN-45" value="" style="edgeStyle=orthogonalEdgeStyle;shape=connector;rounded=0;orthogonalLoop=1;jettySize=auto;html=1;shadow=0;strokeColor=default;align=center;verticalAlign=middle;fontFamily=Helvetica;fontSize=11;fontColor=default;labelBackgroundColor=default;endArrow=classic;endFill=1;flowAnimation=0;" edge="1" parent="1Hu_FpD2nitlBrhvJcuN-2" source="1Hu_FpD2nitlBrhvJcuN-5" target="1Hu_FpD2nitlBrhvJcuN-44">
          <mxGeometry relative="1" as="geometry" />
        </mxCell>
        <mxCell id="1Hu_FpD2nitlBrhvJcuN-5" value="&lt;font style=&quot;font-size: 9px;&quot;&gt;Cliente preenche&lt;/font&gt;&lt;div&gt;&lt;font style=&quot;font-size: 9px;&quot;&gt;os dados&lt;/font&gt;&lt;/div&gt;" style="rounded=1;whiteSpace=wrap;html=1;fontFamily=Helvetica;fontSize=12;fontColor=#000000;align=center;" vertex="1" parent="1Hu_FpD2nitlBrhvJcuN-2">
          <mxGeometry x="40" y="88" width="80" height="60" as="geometry" />
        </mxCell>
        <mxCell id="1Hu_FpD2nitlBrhvJcuN-6" value="" style="edgeStyle=orthogonalEdgeStyle;rounded=0;orthogonalLoop=1;jettySize=auto;html=1;endArrow=classic;endFill=1;exitX=0.5;exitY=0;exitDx=0;exitDy=0;" edge="1" parent="1Hu_FpD2nitlBrhvJcuN-2" source="1Hu_FpD2nitlBrhvJcuN-12" target="1Hu_FpD2nitlBrhvJcuN-9">
          <mxGeometry relative="1" as="geometry">
            <mxPoint x="800" y="118" as="sourcePoint" />
            <Array as="points">
              <mxPoint x="780" y="80" />
              <mxPoint x="780" y="80" />
            </Array>
          </mxGeometry>
        </mxCell>
        <mxCell id="1Hu_FpD2nitlBrhvJcuN-8" value="" style="edgeStyle=orthogonalEdgeStyle;rounded=0;orthogonalLoop=1;jettySize=auto;html=1;endArrow=classic;endFill=1;" edge="1" parent="1Hu_FpD2nitlBrhvJcuN-2">
          <mxGeometry relative="1" as="geometry">
            <mxPoint x="710" y="270.0344827586207" as="sourcePoint" />
          </mxGeometry>
        </mxCell>
        <mxCell id="1Hu_FpD2nitlBrhvJcuN-9" value="&lt;font style=&quot;font-size: 9px;&quot;&gt;Fim&lt;/font&gt;" style="ellipse;whiteSpace=wrap;html=1;strokeWidth=3;" vertex="1" parent="1Hu_FpD2nitlBrhvJcuN-2">
          <mxGeometry x="760" y="18" width="40" height="40" as="geometry" />
        </mxCell>
        <mxCell id="1Hu_FpD2nitlBrhvJcuN-10" value="" style="edgeStyle=orthogonalEdgeStyle;shape=connector;rounded=0;orthogonalLoop=1;jettySize=auto;html=1;shadow=0;strokeColor=default;align=center;verticalAlign=middle;fontFamily=Helvetica;fontSize=11;fontColor=default;labelBackgroundColor=default;endArrow=classic;endFill=1;flowAnimation=0;exitX=0.5;exitY=0;exitDx=0;exitDy=0;entryX=0.5;entryY=1;entryDx=0;entryDy=0;" edge="1" parent="1Hu_FpD2nitlBrhvJcuN-2" source="1Hu_FpD2nitlBrhvJcuN-165" target="1Hu_FpD2nitlBrhvJcuN-12">
          <mxGeometry relative="1" as="geometry">
            <mxPoint x="600" y="118" as="sourcePoint" />
            <Array as="points" />
          </mxGeometry>
        </mxCell>
        <mxCell id="1Hu_FpD2nitlBrhvJcuN-12" value="&lt;font style=&quot;font-size: 9px;&quot;&gt;Exibe a confirmação / erro da transação&lt;/font&gt;" style="whiteSpace=wrap;html=1;rounded=1;" vertex="1" parent="1Hu_FpD2nitlBrhvJcuN-2">
          <mxGeometry x="740" y="98" width="80" height="60" as="geometry" />
        </mxCell>
        <mxCell id="1Hu_FpD2nitlBrhvJcuN-13" value="&lt;font style=&quot;font-size: 9px; background-color: rgb(236, 236, 236);&quot;&gt;send&lt;/font&gt;&lt;div style=&quot;font-size: 9px; background-color: rgb(236, 236, 236);&quot;&gt;&lt;font style=&quot;line-height: 9px;&quot;&gt;request&lt;/font&gt;&lt;/div&gt;" style="ellipse;shape=doubleEllipse;whiteSpace=wrap;html=1;aspect=fixed;fontFamily=Helvetica;fontSize=11;fontColor=default;labelBackgroundColor=default;" vertex="1" parent="1Hu_FpD2nitlBrhvJcuN-2">
          <mxGeometry x="147.5" y="185.5" width="45" height="45" as="geometry" />
        </mxCell>
        <mxCell id="1Hu_FpD2nitlBrhvJcuN-46" value="" style="edgeStyle=orthogonalEdgeStyle;shape=connector;rounded=0;orthogonalLoop=1;jettySize=auto;html=1;shadow=0;strokeColor=default;align=center;verticalAlign=middle;fontFamily=Helvetica;fontSize=11;fontColor=default;labelBackgroundColor=default;endArrow=classic;endFill=1;flowAnimation=0;" edge="1" parent="1Hu_FpD2nitlBrhvJcuN-2" source="1Hu_FpD2nitlBrhvJcuN-44" target="1Hu_FpD2nitlBrhvJcuN-13">
          <mxGeometry relative="1" as="geometry" />
        </mxCell>
        <mxCell id="1Hu_FpD2nitlBrhvJcuN-49" value="" style="edgeStyle=orthogonalEdgeStyle;shape=connector;rounded=0;orthogonalLoop=1;jettySize=auto;html=1;shadow=0;strokeColor=default;align=center;verticalAlign=middle;fontFamily=Helvetica;fontSize=11;fontColor=default;labelBackgroundColor=default;endArrow=classic;endFill=1;flowAnimation=0;" edge="1" parent="1Hu_FpD2nitlBrhvJcuN-2" source="1Hu_FpD2nitlBrhvJcuN-44" target="1Hu_FpD2nitlBrhvJcuN-48">
          <mxGeometry relative="1" as="geometry" />
        </mxCell>
        <mxCell id="1Hu_FpD2nitlBrhvJcuN-44" value="" style="rhombus;whiteSpace=wrap;html=1;fontColor=#000000;rounded=0;" vertex="1" parent="1Hu_FpD2nitlBrhvJcuN-2">
          <mxGeometry x="150" y="98" width="40" height="40" as="geometry" />
        </mxCell>
        <mxCell id="1Hu_FpD2nitlBrhvJcuN-47" value="&lt;blockquote style=&quot;margin-top: 0px; margin-right: 0px; margin-left: 0px;&quot;&gt;&lt;span style=&quot;background-color: light-dark(#ffffff, var(--ge-dark-color, #121212)); color: light-dark(rgb(0, 0, 0), rgb(255, 255, 255)); font-weight: normal; line-height: 90%;&quot;&gt;É QR Code?&lt;/span&gt;&lt;/blockquote&gt;" style="text;html=1;whiteSpace=wrap;overflow=hidden;rounded=0;fontFamily=Helvetica;fontSize=9;fontColor=default;labelBackgroundColor=default;align=right;verticalAlign=middle;" vertex="1" parent="1Hu_FpD2nitlBrhvJcuN-2">
          <mxGeometry x="140" y="78" width="56.25" height="20" as="geometry" />
        </mxCell>
        <mxCell id="1Hu_FpD2nitlBrhvJcuN-56" value="" style="edgeStyle=orthogonalEdgeStyle;shape=connector;rounded=0;orthogonalLoop=1;jettySize=auto;html=1;shadow=0;strokeColor=default;align=center;verticalAlign=middle;fontFamily=Helvetica;fontSize=11;fontColor=default;labelBackgroundColor=default;endArrow=classic;endFill=1;flowAnimation=0;" edge="1" parent="1Hu_FpD2nitlBrhvJcuN-2" source="1Hu_FpD2nitlBrhvJcuN-48" target="1Hu_FpD2nitlBrhvJcuN-55">
          <mxGeometry relative="1" as="geometry" />
        </mxCell>
        <mxCell id="1Hu_FpD2nitlBrhvJcuN-48" value="&lt;font style=&quot;font-size: 9px;&quot;&gt;Abre a câmera do device&lt;/font&gt;" style="whiteSpace=wrap;html=1;fontColor=#000000;rounded=1;" vertex="1" parent="1Hu_FpD2nitlBrhvJcuN-2">
          <mxGeometry x="230" y="88" width="80" height="60" as="geometry" />
        </mxCell>
        <mxCell id="1Hu_FpD2nitlBrhvJcuN-51" value="&lt;blockquote style=&quot;margin-top: 0px; margin-right: 0px; margin-left: 0px;&quot;&gt;&lt;span style=&quot;background-color: light-dark(#ffffff, var(--ge-dark-color, #121212)); color: light-dark(rgb(0, 0, 0), rgb(255, 255, 255)); font-weight: normal; line-height: 90%;&quot;&gt;Não&lt;/span&gt;&lt;/blockquote&gt;" style="text;html=1;whiteSpace=wrap;overflow=hidden;rounded=0;fontFamily=Helvetica;fontSize=9;fontColor=default;labelBackgroundColor=default;align=right;verticalAlign=middle;" vertex="1" parent="1Hu_FpD2nitlBrhvJcuN-2">
          <mxGeometry x="170" y="148" width="30" height="20" as="geometry" />
        </mxCell>
        <mxCell id="1Hu_FpD2nitlBrhvJcuN-54" value="&lt;blockquote style=&quot;margin-top: 0px; margin-right: 0px; margin-left: 0px;&quot;&gt;&lt;span style=&quot;background-color: light-dark(#ffffff, var(--ge-dark-color, #121212)); color: light-dark(rgb(0, 0, 0), rgb(255, 255, 255)); font-weight: normal; line-height: 90%;&quot;&gt;Sim&lt;/span&gt;&lt;/blockquote&gt;" style="text;html=1;whiteSpace=wrap;overflow=hidden;rounded=0;fontFamily=Helvetica;fontSize=9;fontColor=default;labelBackgroundColor=default;align=right;verticalAlign=middle;" vertex="1" parent="1Hu_FpD2nitlBrhvJcuN-2">
          <mxGeometry x="190" y="98" width="30" height="20" as="geometry" />
        </mxCell>
        <mxCell id="1Hu_FpD2nitlBrhvJcuN-60" value="" style="edgeStyle=orthogonalEdgeStyle;shape=connector;rounded=0;orthogonalLoop=1;jettySize=auto;html=1;shadow=0;strokeColor=default;align=center;verticalAlign=middle;fontFamily=Helvetica;fontSize=11;fontColor=default;labelBackgroundColor=default;endArrow=classic;endFill=1;flowAnimation=0;" edge="1" parent="1Hu_FpD2nitlBrhvJcuN-2" source="1Hu_FpD2nitlBrhvJcuN-55" target="1Hu_FpD2nitlBrhvJcuN-59">
          <mxGeometry relative="1" as="geometry" />
        </mxCell>
        <mxCell id="1Hu_FpD2nitlBrhvJcuN-55" value="&lt;font style=&quot;font-size: 9px;&quot;&gt;Parse na string extraída e exibição na tela&lt;/font&gt;" style="whiteSpace=wrap;html=1;fontColor=#000000;rounded=1;" vertex="1" parent="1Hu_FpD2nitlBrhvJcuN-2">
          <mxGeometry x="340" y="88" width="80" height="60" as="geometry" />
        </mxCell>
        <mxCell id="1Hu_FpD2nitlBrhvJcuN-163" value="" style="edgeStyle=orthogonalEdgeStyle;shape=connector;rounded=0;orthogonalLoop=1;jettySize=auto;html=1;shadow=0;strokeColor=default;align=center;verticalAlign=middle;fontFamily=Helvetica;fontSize=11;fontColor=default;labelBackgroundColor=default;endArrow=classic;endFill=1;flowAnimation=0;" edge="1" parent="1Hu_FpD2nitlBrhvJcuN-2" source="1Hu_FpD2nitlBrhvJcuN-59" target="1Hu_FpD2nitlBrhvJcuN-162">
          <mxGeometry relative="1" as="geometry" />
        </mxCell>
        <mxCell id="1Hu_FpD2nitlBrhvJcuN-59" value="&lt;font style=&quot;font-size: 9px;&quot;&gt;Retorna confirmação de valor e + dados&lt;/font&gt;" style="whiteSpace=wrap;html=1;fontColor=#000000;rounded=1;" vertex="1" parent="1Hu_FpD2nitlBrhvJcuN-2">
          <mxGeometry x="340" y="178" width="80" height="60" as="geometry" />
        </mxCell>
        <mxCell id="1Hu_FpD2nitlBrhvJcuN-164" value="" style="edgeStyle=orthogonalEdgeStyle;shape=connector;rounded=0;orthogonalLoop=1;jettySize=auto;html=1;shadow=0;strokeColor=default;align=center;verticalAlign=middle;fontFamily=Helvetica;fontSize=11;fontColor=default;labelBackgroundColor=default;endArrow=classic;endFill=1;flowAnimation=0;entryX=1;entryY=0.5;entryDx=0;entryDy=0;" edge="1" parent="1Hu_FpD2nitlBrhvJcuN-2" source="1Hu_FpD2nitlBrhvJcuN-162" target="1Hu_FpD2nitlBrhvJcuN-13">
          <mxGeometry relative="1" as="geometry">
            <mxPoint x="210" y="258" as="targetPoint" />
          </mxGeometry>
        </mxCell>
        <mxCell id="1Hu_FpD2nitlBrhvJcuN-162" value="&lt;font style=&quot;font-size: 9px;&quot;&gt;Usuário confirma o pagamento&lt;/font&gt;" style="whiteSpace=wrap;html=1;fontColor=#000000;rounded=1;" vertex="1" parent="1Hu_FpD2nitlBrhvJcuN-2">
          <mxGeometry x="230" y="178" width="80" height="60" as="geometry" />
        </mxCell>
        <mxCell id="1Hu_FpD2nitlBrhvJcuN-165" value="&lt;span style=&quot;font-size: 9px; background-color: rgb(236, 236, 236);&quot;&gt;publish&lt;/span&gt;&lt;br&gt;&lt;div style=&quot;font-size: 9px; background-color: rgb(236, 236, 236);&quot;&gt;&lt;font style=&quot;line-height: 9px;&quot;&gt;kafka&lt;/font&gt;&lt;/div&gt;" style="ellipse;shape=doubleEllipse;whiteSpace=wrap;html=1;aspect=fixed;fontFamily=Helvetica;fontSize=11;fontColor=default;labelBackgroundColor=default;opacity=90;" vertex="1" parent="1Hu_FpD2nitlBrhvJcuN-2">
          <mxGeometry x="760" y="198" width="40" height="40" as="geometry" />
        </mxCell>
        <mxCell id="1Hu_FpD2nitlBrhvJcuN-16" value="API" style="swimlane;html=1;startSize=20;horizontal=0;rounded=0;" vertex="1" parent="1Hu_FpD2nitlBrhvJcuN-1">
          <mxGeometry x="20" y="270" width="850" height="220" as="geometry">
            <mxRectangle x="20" y="120" width="430" height="30" as="alternateBounds" />
          </mxGeometry>
        </mxCell>
        <mxCell id="1Hu_FpD2nitlBrhvJcuN-63" value="" style="edgeStyle=orthogonalEdgeStyle;shape=connector;rounded=0;orthogonalLoop=1;jettySize=auto;html=1;shadow=0;strokeColor=default;align=center;verticalAlign=middle;fontFamily=Helvetica;fontSize=11;fontColor=default;labelBackgroundColor=default;endArrow=classic;endFill=1;flowAnimation=0;" edge="1" parent="1Hu_FpD2nitlBrhvJcuN-16" source="1Hu_FpD2nitlBrhvJcuN-30" target="1Hu_FpD2nitlBrhvJcuN-62">
          <mxGeometry relative="1" as="geometry" />
        </mxCell>
        <mxCell id="1Hu_FpD2nitlBrhvJcuN-30" value="&lt;span style=&quot;font-size: 9px; background-color: rgb(236, 236, 236);&quot;&gt;receive&lt;/span&gt;&lt;br&gt;&lt;div style=&quot;font-size: 9px; background-color: rgb(236, 236, 236);&quot;&gt;&lt;font style=&quot;line-height: 9px;&quot;&gt;request&lt;/font&gt;&lt;/div&gt;" style="ellipse;shape=doubleEllipse;whiteSpace=wrap;html=1;aspect=fixed;fontFamily=Helvetica;fontSize=11;fontColor=default;labelBackgroundColor=default;" vertex="1" parent="1Hu_FpD2nitlBrhvJcuN-16">
          <mxGeometry x="147.5" y="37.5" width="45" height="45" as="geometry" />
        </mxCell>
        <mxCell id="1Hu_FpD2nitlBrhvJcuN-65" value="" style="edgeStyle=orthogonalEdgeStyle;shape=connector;rounded=0;orthogonalLoop=1;jettySize=auto;html=1;shadow=0;strokeColor=default;align=center;verticalAlign=middle;fontFamily=Helvetica;fontSize=11;fontColor=default;labelBackgroundColor=default;endArrow=classic;endFill=1;flowAnimation=0;exitX=0.5;exitY=1;exitDx=0;exitDy=0;" edge="1" parent="1Hu_FpD2nitlBrhvJcuN-16" source="1Hu_FpD2nitlBrhvJcuN-62" target="1Hu_FpD2nitlBrhvJcuN-64">
          <mxGeometry relative="1" as="geometry" />
        </mxCell>
        <mxCell id="1Hu_FpD2nitlBrhvJcuN-62" value="&lt;font style=&quot;font-size: 9px;&quot;&gt;Montar a instrução de pagamentos&lt;/font&gt;" style="whiteSpace=wrap;html=1;fontSize=11;labelBackgroundColor=default;rounded=1;" vertex="1" parent="1Hu_FpD2nitlBrhvJcuN-16">
          <mxGeometry x="230" y="30" width="80" height="60" as="geometry" />
        </mxCell>
        <mxCell id="1Hu_FpD2nitlBrhvJcuN-78" value="" style="edgeStyle=orthogonalEdgeStyle;shape=connector;rounded=0;orthogonalLoop=1;jettySize=auto;html=1;shadow=0;strokeColor=default;align=center;verticalAlign=middle;fontFamily=Helvetica;fontSize=11;fontColor=default;labelBackgroundColor=default;endArrow=classic;endFill=1;flowAnimation=0;entryX=1;entryY=0.5;entryDx=0;entryDy=0;" edge="1" parent="1Hu_FpD2nitlBrhvJcuN-16" source="1Hu_FpD2nitlBrhvJcuN-64" target="1Hu_FpD2nitlBrhvJcuN-79">
          <mxGeometry relative="1" as="geometry">
            <mxPoint x="200" y="160.0000000000001" as="targetPoint" />
          </mxGeometry>
        </mxCell>
        <mxCell id="1Hu_FpD2nitlBrhvJcuN-64" value="&lt;font style=&quot;font-size: 9px;&quot;&gt;Salvar instrução no banco de dados&lt;/font&gt;" style="whiteSpace=wrap;html=1;fontSize=11;labelBackgroundColor=default;rounded=1;" vertex="1" parent="1Hu_FpD2nitlBrhvJcuN-16">
          <mxGeometry x="230" y="130" width="80" height="60" as="geometry" />
        </mxCell>
        <mxCell id="1Hu_FpD2nitlBrhvJcuN-79" value="&lt;span style=&quot;font-size: 9px; background-color: rgb(236, 236, 236);&quot;&gt;publish&lt;/span&gt;&lt;br&gt;&lt;div style=&quot;font-size: 9px; background-color: rgb(236, 236, 236);&quot;&gt;&lt;font style=&quot;line-height: 9px;&quot;&gt;kafka&lt;/font&gt;&lt;/div&gt;" style="ellipse;shape=doubleEllipse;whiteSpace=wrap;html=1;aspect=fixed;fontFamily=Helvetica;fontSize=11;fontColor=default;labelBackgroundColor=default;opacity=90;" vertex="1" parent="1Hu_FpD2nitlBrhvJcuN-16">
          <mxGeometry x="150" y="140" width="40" height="40" as="geometry" />
        </mxCell>
        <mxCell id="1Hu_FpD2nitlBrhvJcuN-157" value="" style="edgeStyle=orthogonalEdgeStyle;shape=connector;rounded=0;orthogonalLoop=1;jettySize=auto;html=1;shadow=0;strokeColor=default;align=center;verticalAlign=middle;fontFamily=Helvetica;fontSize=11;fontColor=default;labelBackgroundColor=default;endArrow=classic;endFill=1;flowAnimation=0;entryX=0.5;entryY=1;entryDx=0;entryDy=0;" edge="1" parent="1Hu_FpD2nitlBrhvJcuN-16" source="1Hu_FpD2nitlBrhvJcuN-152" target="1Hu_FpD2nitlBrhvJcuN-156">
          <mxGeometry relative="1" as="geometry" />
        </mxCell>
        <mxCell id="1Hu_FpD2nitlBrhvJcuN-152" value="&lt;span style=&quot;font-size: 9px; background-color: rgb(236, 236, 236);&quot;&gt;publish&lt;/span&gt;&lt;br&gt;&lt;div style=&quot;font-size: 9px; background-color: rgb(236, 236, 236);&quot;&gt;&lt;font style=&quot;line-height: 9px;&quot;&gt;kafka&lt;/font&gt;&lt;/div&gt;" style="ellipse;shape=doubleEllipse;whiteSpace=wrap;html=1;aspect=fixed;fontFamily=Helvetica;fontSize=11;fontColor=default;labelBackgroundColor=default;opacity=90;" vertex="1" parent="1Hu_FpD2nitlBrhvJcuN-16">
          <mxGeometry x="760" y="140" width="40" height="40" as="geometry" />
        </mxCell>
        <mxCell id="1Hu_FpD2nitlBrhvJcuN-159" style="edgeStyle=orthogonalEdgeStyle;shape=connector;rounded=0;orthogonalLoop=1;jettySize=auto;html=1;exitX=0.5;exitY=0;exitDx=0;exitDy=0;entryX=0;entryY=0.5;entryDx=0;entryDy=0;shadow=0;strokeColor=default;align=center;verticalAlign=middle;fontFamily=Helvetica;fontSize=11;fontColor=default;labelBackgroundColor=default;endArrow=classic;endFill=1;flowAnimation=0;" edge="1" parent="1Hu_FpD2nitlBrhvJcuN-16" source="1Hu_FpD2nitlBrhvJcuN-156" target="1Hu_FpD2nitlBrhvJcuN-158">
          <mxGeometry relative="1" as="geometry" />
        </mxCell>
        <mxCell id="1Hu_FpD2nitlBrhvJcuN-156" value="&lt;font style=&quot;font-size: 9px;&quot;&gt;Altera status no banco de dados&lt;/font&gt;" style="whiteSpace=wrap;html=1;fontSize=11;labelBackgroundColor=default;rounded=1;" vertex="1" parent="1Hu_FpD2nitlBrhvJcuN-16">
          <mxGeometry x="620" y="80" width="80" height="60" as="geometry" />
        </mxCell>
        <mxCell id="1Hu_FpD2nitlBrhvJcuN-158" value="&lt;span style=&quot;font-size: 9px; background-color: rgb(236, 236, 236);&quot;&gt;publish&lt;/span&gt;&lt;br&gt;&lt;div style=&quot;font-size: 9px; background-color: rgb(236, 236, 236);&quot;&gt;&lt;font style=&quot;line-height: 9px;&quot;&gt;kafka&lt;/font&gt;&lt;/div&gt;" style="ellipse;shape=doubleEllipse;whiteSpace=wrap;html=1;aspect=fixed;fontFamily=Helvetica;fontSize=11;fontColor=default;labelBackgroundColor=default;opacity=90;" vertex="1" parent="1Hu_FpD2nitlBrhvJcuN-16">
          <mxGeometry x="760" y="37.5" width="40" height="40" as="geometry" />
        </mxCell>
        <mxCell id="1Hu_FpD2nitlBrhvJcuN-81" value="" style="edgeStyle=orthogonalEdgeStyle;shape=connector;rounded=0;orthogonalLoop=1;jettySize=auto;html=1;shadow=0;strokeColor=default;align=center;verticalAlign=middle;fontFamily=Helvetica;fontSize=11;fontColor=default;labelBackgroundColor=default;endArrow=classic;endFill=1;flowAnimation=0;dashed=1;" edge="1" parent="1Hu_FpD2nitlBrhvJcuN-1" source="1Hu_FpD2nitlBrhvJcuN-79" target="1Hu_FpD2nitlBrhvJcuN-80">
          <mxGeometry relative="1" as="geometry" />
        </mxCell>
        <mxCell id="1Hu_FpD2nitlBrhvJcuN-33" value="KAFKA" style="swimlane;html=1;startSize=20;horizontal=0;" vertex="1" parent="1Hu_FpD2nitlBrhvJcuN-1">
          <mxGeometry x="20" y="490" width="850" height="290" as="geometry" />
        </mxCell>
        <mxCell id="1Hu_FpD2nitlBrhvJcuN-34" value="" style="edgeStyle=orthogonalEdgeStyle;rounded=0;orthogonalLoop=1;jettySize=auto;html=1;endArrow=classic;endFill=1;" edge="1" parent="1Hu_FpD2nitlBrhvJcuN-33">
          <mxGeometry relative="1" as="geometry">
            <mxPoint x="360" y="50.000000000000114" as="targetPoint" />
          </mxGeometry>
        </mxCell>
        <mxCell id="1Hu_FpD2nitlBrhvJcuN-83" value="" style="edgeStyle=orthogonalEdgeStyle;shape=connector;rounded=0;orthogonalLoop=1;jettySize=auto;html=1;shadow=0;strokeColor=default;align=center;verticalAlign=middle;fontFamily=Helvetica;fontSize=11;fontColor=default;labelBackgroundColor=default;endArrow=classic;endFill=1;flowAnimation=0;" edge="1" parent="1Hu_FpD2nitlBrhvJcuN-33" source="1Hu_FpD2nitlBrhvJcuN-80" target="1Hu_FpD2nitlBrhvJcuN-82">
          <mxGeometry relative="1" as="geometry" />
        </mxCell>
        <mxCell id="1Hu_FpD2nitlBrhvJcuN-80" value="&lt;span style=&quot;font-size: 9px; background-color: rgb(236, 236, 236);&quot;&gt;receive&lt;/span&gt;&lt;br&gt;&lt;div style=&quot;font-size: 9px; background-color: rgb(236, 236, 236);&quot;&gt;&lt;font style=&quot;line-height: 9px;&quot;&gt;request&lt;/font&gt;&lt;/div&gt;" style="ellipse;shape=doubleEllipse;whiteSpace=wrap;html=1;aspect=fixed;fontFamily=Helvetica;fontSize=11;fontColor=default;labelBackgroundColor=default;opacity=90;" vertex="1" parent="1Hu_FpD2nitlBrhvJcuN-33">
          <mxGeometry x="150" y="55" width="40" height="40" as="geometry" />
        </mxCell>
        <mxCell id="1Hu_FpD2nitlBrhvJcuN-88" value="" style="edgeStyle=orthogonalEdgeStyle;shape=connector;rounded=0;orthogonalLoop=1;jettySize=auto;html=1;shadow=0;strokeColor=default;align=center;verticalAlign=middle;fontFamily=Helvetica;fontSize=11;fontColor=default;labelBackgroundColor=default;endArrow=classic;endFill=1;flowAnimation=0;entryX=0.5;entryY=0;entryDx=0;entryDy=0;" edge="1" parent="1Hu_FpD2nitlBrhvJcuN-33" source="1Hu_FpD2nitlBrhvJcuN-82" target="1Hu_FpD2nitlBrhvJcuN-89">
          <mxGeometry relative="1" as="geometry">
            <mxPoint x="170" y="250" as="targetPoint" />
          </mxGeometry>
        </mxCell>
        <mxCell id="1Hu_FpD2nitlBrhvJcuN-82" value="&lt;font style=&quot;font-size: 9px;&quot;&gt;Antifraude&lt;/font&gt;" style="whiteSpace=wrap;html=1;fontSize=11;labelBackgroundColor=default;opacity=90;rounded=1;" vertex="1" parent="1Hu_FpD2nitlBrhvJcuN-33">
          <mxGeometry x="130" y="120" width="80" height="60" as="geometry" />
        </mxCell>
        <mxCell id="1Hu_FpD2nitlBrhvJcuN-89" value="&lt;span style=&quot;font-size: 9px; background-color: rgb(236, 236, 236);&quot;&gt;receive&lt;/span&gt;&lt;br&gt;&lt;div style=&quot;font-size: 9px; background-color: rgb(236, 236, 236);&quot;&gt;&lt;font style=&quot;line-height: 9px;&quot;&gt;request&lt;/font&gt;&lt;/div&gt;" style="ellipse;shape=doubleEllipse;whiteSpace=wrap;html=1;aspect=fixed;fontFamily=Helvetica;fontSize=11;fontColor=default;labelBackgroundColor=default;" vertex="1" parent="1Hu_FpD2nitlBrhvJcuN-33">
          <mxGeometry x="150" y="210" width="40" height="40" as="geometry" />
        </mxCell>
        <mxCell id="1Hu_FpD2nitlBrhvJcuN-109" value="" style="edgeStyle=orthogonalEdgeStyle;shape=connector;rounded=0;orthogonalLoop=1;jettySize=auto;html=1;shadow=0;strokeColor=default;align=center;verticalAlign=middle;fontFamily=Helvetica;fontSize=11;fontColor=default;labelBackgroundColor=default;endArrow=classic;endFill=1;flowAnimation=0;" edge="1" parent="1Hu_FpD2nitlBrhvJcuN-33" source="1Hu_FpD2nitlBrhvJcuN-90" target="1Hu_FpD2nitlBrhvJcuN-108">
          <mxGeometry relative="1" as="geometry" />
        </mxCell>
        <mxCell id="1Hu_FpD2nitlBrhvJcuN-90" value="&lt;span style=&quot;font-size: 9px; background-color: rgb(236, 236, 236);&quot;&gt;receive&lt;/span&gt;&lt;br&gt;&lt;div style=&quot;font-size: 9px; background-color: rgb(236, 236, 236);&quot;&gt;&lt;font style=&quot;line-height: 9px;&quot;&gt;request&lt;/font&gt;&lt;/div&gt;" style="ellipse;shape=doubleEllipse;whiteSpace=wrap;html=1;aspect=fixed;fontFamily=Helvetica;fontSize=11;fontColor=default;labelBackgroundColor=default;" vertex="1" parent="1Hu_FpD2nitlBrhvJcuN-33">
          <mxGeometry x="230" y="210" width="40" height="40" as="geometry" />
        </mxCell>
        <mxCell id="1Hu_FpD2nitlBrhvJcuN-99" value="&lt;span style=&quot;font-size: 9px; background-color: rgb(236, 236, 236);&quot;&gt;receive&lt;/span&gt;&lt;br&gt;&lt;div style=&quot;font-size: 9px; background-color: rgb(236, 236, 236);&quot;&gt;&lt;font style=&quot;line-height: 9px;&quot;&gt;request&lt;/font&gt;&lt;/div&gt;" style="ellipse;shape=doubleEllipse;whiteSpace=wrap;html=1;aspect=fixed;fontFamily=Helvetica;fontSize=11;fontColor=default;labelBackgroundColor=default;" vertex="1" parent="1Hu_FpD2nitlBrhvJcuN-33">
          <mxGeometry x="420" y="210" width="40" height="40" as="geometry" />
        </mxCell>
        <mxCell id="1Hu_FpD2nitlBrhvJcuN-115" value="" style="edgeStyle=orthogonalEdgeStyle;shape=connector;rounded=0;orthogonalLoop=1;jettySize=auto;html=1;shadow=0;strokeColor=default;align=center;verticalAlign=middle;fontFamily=Helvetica;fontSize=11;fontColor=default;labelBackgroundColor=default;endArrow=classic;endFill=1;flowAnimation=0;" edge="1" parent="1Hu_FpD2nitlBrhvJcuN-33" source="1Hu_FpD2nitlBrhvJcuN-108" target="1Hu_FpD2nitlBrhvJcuN-99">
          <mxGeometry relative="1" as="geometry" />
        </mxCell>
        <mxCell id="1Hu_FpD2nitlBrhvJcuN-118" style="edgeStyle=orthogonalEdgeStyle;shape=connector;rounded=0;orthogonalLoop=1;jettySize=auto;html=1;exitX=0.5;exitY=0;exitDx=0;exitDy=0;entryX=0;entryY=0.5;entryDx=0;entryDy=0;shadow=0;strokeColor=default;align=center;verticalAlign=middle;fontFamily=Helvetica;fontSize=11;fontColor=default;labelBackgroundColor=default;endArrow=classic;endFill=1;flowAnimation=0;" edge="1" parent="1Hu_FpD2nitlBrhvJcuN-33" source="1Hu_FpD2nitlBrhvJcuN-108" target="1Hu_FpD2nitlBrhvJcuN-111">
          <mxGeometry relative="1" as="geometry" />
        </mxCell>
        <mxCell id="1Hu_FpD2nitlBrhvJcuN-108" value="" style="rhombus;whiteSpace=wrap;html=1;fontSize=11;labelBackgroundColor=default;" vertex="1" parent="1Hu_FpD2nitlBrhvJcuN-33">
          <mxGeometry x="320" y="210" width="40" height="40" as="geometry" />
        </mxCell>
        <mxCell id="1Hu_FpD2nitlBrhvJcuN-110" value="&lt;blockquote style=&quot;margin-top: 0px; margin-right: 0px; margin-left: 0px;&quot;&gt;&lt;span style=&quot;background-color: light-dark(#ffffff, var(--ge-dark-color, #121212)); color: light-dark(rgb(0, 0, 0), rgb(255, 255, 255)); font-weight: normal; line-height: 90%;&quot;&gt;Aprovado?&lt;/span&gt;&lt;/blockquote&gt;" style="text;html=1;whiteSpace=wrap;overflow=hidden;rounded=0;fontFamily=Helvetica;fontSize=9;fontColor=default;labelBackgroundColor=default;align=center;verticalAlign=middle;" vertex="1" parent="1Hu_FpD2nitlBrhvJcuN-33">
          <mxGeometry x="311.88" y="250" width="56.25" height="20" as="geometry" />
        </mxCell>
        <mxCell id="1Hu_FpD2nitlBrhvJcuN-146" style="edgeStyle=orthogonalEdgeStyle;shape=connector;rounded=0;orthogonalLoop=1;jettySize=auto;html=1;entryX=0.5;entryY=0;entryDx=0;entryDy=0;shadow=0;strokeColor=default;align=center;verticalAlign=middle;fontFamily=Helvetica;fontSize=11;fontColor=default;labelBackgroundColor=default;endArrow=classic;endFill=1;flowAnimation=0;exitX=1;exitY=0.5;exitDx=0;exitDy=0;" edge="1" parent="1Hu_FpD2nitlBrhvJcuN-33" source="1Hu_FpD2nitlBrhvJcuN-111" target="1Hu_FpD2nitlBrhvJcuN-135">
          <mxGeometry relative="1" as="geometry">
            <mxPoint x="580" y="85" as="sourcePoint" />
            <Array as="points">
              <mxPoint x="700" y="85" />
            </Array>
          </mxGeometry>
        </mxCell>
        <mxCell id="1Hu_FpD2nitlBrhvJcuN-111" value="&lt;font style=&quot;font-size: 9px;&quot;&gt;Criar mensagem de erro antifraude&lt;/font&gt;" style="whiteSpace=wrap;html=1;fontSize=11;labelBackgroundColor=default;rounded=1;" vertex="1" parent="1Hu_FpD2nitlBrhvJcuN-33">
          <mxGeometry x="470" y="55" width="80" height="60" as="geometry" />
        </mxCell>
        <mxCell id="1Hu_FpD2nitlBrhvJcuN-113" value="&lt;blockquote style=&quot;margin-top: 0px; margin-right: 0px; margin-left: 0px;&quot;&gt;&lt;span style=&quot;background-color: light-dark(#ffffff, var(--ge-dark-color, #121212)); color: light-dark(rgb(0, 0, 0), rgb(255, 255, 255)); font-weight: normal; line-height: 90%;&quot;&gt;Não&lt;/span&gt;&lt;/blockquote&gt;" style="text;html=1;whiteSpace=wrap;overflow=hidden;rounded=0;fontFamily=Helvetica;fontSize=9;fontColor=default;labelBackgroundColor=default;align=right;verticalAlign=middle;" vertex="1" parent="1Hu_FpD2nitlBrhvJcuN-33">
          <mxGeometry x="311.88" y="190" width="20" height="20" as="geometry" />
        </mxCell>
        <mxCell id="1Hu_FpD2nitlBrhvJcuN-114" value="&lt;blockquote style=&quot;margin-top: 0px; margin-right: 0px; margin-left: 0px;&quot;&gt;&lt;span style=&quot;background-color: light-dark(#ffffff, var(--ge-dark-color, #121212)); color: light-dark(rgb(0, 0, 0), rgb(255, 255, 255)); font-weight: normal; line-height: 90%;&quot;&gt;Sim&lt;/span&gt;&lt;/blockquote&gt;" style="text;html=1;whiteSpace=wrap;overflow=hidden;rounded=0;fontFamily=Helvetica;fontSize=9;fontColor=default;labelBackgroundColor=default;align=left;verticalAlign=middle;" vertex="1" parent="1Hu_FpD2nitlBrhvJcuN-33">
          <mxGeometry x="368.13" y="210" width="21.87" height="20" as="geometry" />
        </mxCell>
        <mxCell id="1Hu_FpD2nitlBrhvJcuN-122" value="" style="edgeStyle=orthogonalEdgeStyle;shape=connector;rounded=0;orthogonalLoop=1;jettySize=auto;html=1;shadow=0;strokeColor=default;align=center;verticalAlign=middle;fontFamily=Helvetica;fontSize=11;fontColor=default;labelBackgroundColor=default;endArrow=classic;endFill=1;flowAnimation=0;" edge="1" parent="1Hu_FpD2nitlBrhvJcuN-33" source="1Hu_FpD2nitlBrhvJcuN-119" target="1Hu_FpD2nitlBrhvJcuN-121">
          <mxGeometry relative="1" as="geometry" />
        </mxCell>
        <mxCell id="1Hu_FpD2nitlBrhvJcuN-119" value="&lt;span style=&quot;font-size: 9px; background-color: rgb(236, 236, 236);&quot;&gt;receive&lt;/span&gt;&lt;br&gt;&lt;div style=&quot;font-size: 9px; background-color: rgb(236, 236, 236);&quot;&gt;&lt;font style=&quot;line-height: 9px;&quot;&gt;request&lt;/font&gt;&lt;/div&gt;" style="ellipse;shape=doubleEllipse;whiteSpace=wrap;html=1;aspect=fixed;fontFamily=Helvetica;fontSize=11;fontColor=default;labelBackgroundColor=default;" vertex="1" parent="1Hu_FpD2nitlBrhvJcuN-33">
          <mxGeometry x="500" y="210" width="40" height="40" as="geometry" />
        </mxCell>
        <mxCell id="1Hu_FpD2nitlBrhvJcuN-130" value="" style="edgeStyle=orthogonalEdgeStyle;shape=connector;rounded=0;orthogonalLoop=1;jettySize=auto;html=1;shadow=0;strokeColor=default;align=center;verticalAlign=middle;fontFamily=Helvetica;fontSize=11;fontColor=default;labelBackgroundColor=default;endArrow=classic;endFill=1;flowAnimation=0;" edge="1" parent="1Hu_FpD2nitlBrhvJcuN-33" source="1Hu_FpD2nitlBrhvJcuN-121" target="1Hu_FpD2nitlBrhvJcuN-129">
          <mxGeometry relative="1" as="geometry" />
        </mxCell>
        <mxCell id="1Hu_FpD2nitlBrhvJcuN-133" value="" style="edgeStyle=orthogonalEdgeStyle;shape=connector;rounded=0;orthogonalLoop=1;jettySize=auto;html=1;shadow=0;strokeColor=default;align=center;verticalAlign=middle;fontFamily=Helvetica;fontSize=11;fontColor=default;labelBackgroundColor=default;endArrow=classic;endFill=1;flowAnimation=0;" edge="1" parent="1Hu_FpD2nitlBrhvJcuN-33" source="1Hu_FpD2nitlBrhvJcuN-121">
          <mxGeometry relative="1" as="geometry">
            <mxPoint x="680" y="230" as="targetPoint" />
          </mxGeometry>
        </mxCell>
        <mxCell id="1Hu_FpD2nitlBrhvJcuN-121" value="" style="rhombus;whiteSpace=wrap;html=1;fontSize=11;labelBackgroundColor=default;" vertex="1" parent="1Hu_FpD2nitlBrhvJcuN-33">
          <mxGeometry x="590" y="210" width="40" height="40" as="geometry" />
        </mxCell>
        <mxCell id="1Hu_FpD2nitlBrhvJcuN-123" value="&lt;blockquote style=&quot;margin-top: 0px; margin-right: 0px; margin-left: 0px;&quot;&gt;&lt;span style=&quot;background-color: light-dark(#ffffff, var(--ge-dark-color, #121212)); color: light-dark(rgb(0, 0, 0), rgb(255, 255, 255)); font-weight: normal; line-height: 90%;&quot;&gt;Aprovado?&lt;/span&gt;&lt;/blockquote&gt;" style="text;html=1;whiteSpace=wrap;overflow=hidden;rounded=0;fontFamily=Helvetica;fontSize=9;fontColor=default;labelBackgroundColor=default;align=center;verticalAlign=middle;" vertex="1" parent="1Hu_FpD2nitlBrhvJcuN-33">
          <mxGeometry x="580" y="250" width="56.25" height="20" as="geometry" />
        </mxCell>
        <mxCell id="1Hu_FpD2nitlBrhvJcuN-124" value="&lt;blockquote style=&quot;margin-top: 0px; margin-right: 0px; margin-left: 0px;&quot;&gt;&lt;span style=&quot;background-color: light-dark(#ffffff, var(--ge-dark-color, #121212)); color: light-dark(rgb(0, 0, 0), rgb(255, 255, 255)); font-weight: normal; line-height: 90%;&quot;&gt;Sim&lt;/span&gt;&lt;/blockquote&gt;" style="text;html=1;whiteSpace=wrap;overflow=hidden;rounded=0;fontFamily=Helvetica;fontSize=9;fontColor=default;labelBackgroundColor=default;align=left;verticalAlign=middle;" vertex="1" parent="1Hu_FpD2nitlBrhvJcuN-33">
          <mxGeometry x="636.25" y="210" width="21.87" height="20" as="geometry" />
        </mxCell>
        <mxCell id="1Hu_FpD2nitlBrhvJcuN-125" value="&lt;blockquote style=&quot;margin-top: 0px; margin-right: 0px; margin-left: 0px;&quot;&gt;&lt;span style=&quot;background-color: light-dark(#ffffff, var(--ge-dark-color, #121212)); color: light-dark(rgb(0, 0, 0), rgb(255, 255, 255)); font-weight: normal; line-height: 90%;&quot;&gt;Não&lt;/span&gt;&lt;/blockquote&gt;" style="text;html=1;whiteSpace=wrap;overflow=hidden;rounded=0;fontFamily=Helvetica;fontSize=9;fontColor=default;labelBackgroundColor=default;align=right;verticalAlign=middle;" vertex="1" parent="1Hu_FpD2nitlBrhvJcuN-33">
          <mxGeometry x="580" y="190" width="20" height="20" as="geometry" />
        </mxCell>
        <mxCell id="1Hu_FpD2nitlBrhvJcuN-147" style="edgeStyle=orthogonalEdgeStyle;shape=connector;rounded=0;orthogonalLoop=1;jettySize=auto;html=1;exitX=1;exitY=0.5;exitDx=0;exitDy=0;shadow=0;strokeColor=default;align=center;verticalAlign=middle;fontFamily=Helvetica;fontSize=11;fontColor=default;labelBackgroundColor=default;endArrow=classic;endFill=1;flowAnimation=0;entryX=0.5;entryY=0;entryDx=0;entryDy=0;" edge="1" parent="1Hu_FpD2nitlBrhvJcuN-33" source="1Hu_FpD2nitlBrhvJcuN-129" target="1Hu_FpD2nitlBrhvJcuN-135">
          <mxGeometry relative="1" as="geometry">
            <mxPoint x="740" y="60" as="targetPoint" />
            <Array as="points" />
          </mxGeometry>
        </mxCell>
        <mxCell id="1Hu_FpD2nitlBrhvJcuN-129" value="&lt;font style=&quot;font-size: 9px;&quot;&gt;Criar mensagem de erro de SPI&lt;/font&gt;" style="whiteSpace=wrap;html=1;fontSize=11;labelBackgroundColor=default;rounded=1;" vertex="1" parent="1Hu_FpD2nitlBrhvJcuN-33">
          <mxGeometry x="570" y="115" width="80" height="60" as="geometry" />
        </mxCell>
        <mxCell id="1Hu_FpD2nitlBrhvJcuN-135" value="&lt;span style=&quot;font-size: 9px; background-color: rgb(236, 236, 236);&quot;&gt;receive&lt;/span&gt;&lt;br&gt;&lt;div style=&quot;font-size: 9px; background-color: rgb(236, 236, 236);&quot;&gt;&lt;font style=&quot;line-height: 9px;&quot;&gt;request&lt;/font&gt;&lt;/div&gt;" style="ellipse;shape=doubleEllipse;whiteSpace=wrap;html=1;aspect=fixed;fontFamily=Helvetica;fontSize=11;fontColor=default;labelBackgroundColor=default;" vertex="1" parent="1Hu_FpD2nitlBrhvJcuN-33">
          <mxGeometry x="680" y="210" width="40" height="40" as="geometry" />
        </mxCell>
        <mxCell id="1Hu_FpD2nitlBrhvJcuN-148" style="edgeStyle=orthogonalEdgeStyle;shape=connector;rounded=0;orthogonalLoop=1;jettySize=auto;html=1;exitX=0.5;exitY=0;exitDx=0;exitDy=0;entryX=0.5;entryY=1;entryDx=0;entryDy=0;shadow=0;strokeColor=default;align=center;verticalAlign=middle;fontFamily=Helvetica;fontSize=11;fontColor=default;labelBackgroundColor=default;endArrow=classic;endFill=1;flowAnimation=0;" edge="1" parent="1Hu_FpD2nitlBrhvJcuN-33" source="1Hu_FpD2nitlBrhvJcuN-144" target="1Hu_FpD2nitlBrhvJcuN-145">
          <mxGeometry relative="1" as="geometry" />
        </mxCell>
        <mxCell id="1Hu_FpD2nitlBrhvJcuN-144" value="&lt;span style=&quot;font-size: 9px; background-color: rgb(236, 236, 236);&quot;&gt;receive&lt;/span&gt;&lt;br&gt;&lt;div style=&quot;font-size: 9px; background-color: rgb(236, 236, 236);&quot;&gt;&lt;font style=&quot;line-height: 9px;&quot;&gt;request&lt;/font&gt;&lt;/div&gt;" style="ellipse;shape=doubleEllipse;whiteSpace=wrap;html=1;aspect=fixed;fontFamily=Helvetica;fontSize=11;fontColor=default;labelBackgroundColor=default;" vertex="1" parent="1Hu_FpD2nitlBrhvJcuN-33">
          <mxGeometry x="760" y="210" width="40" height="40" as="geometry" />
        </mxCell>
        <mxCell id="1Hu_FpD2nitlBrhvJcuN-154" value="" style="edgeStyle=orthogonalEdgeStyle;shape=connector;rounded=0;orthogonalLoop=1;jettySize=auto;html=1;shadow=0;strokeColor=default;align=center;verticalAlign=middle;fontFamily=Helvetica;fontSize=11;fontColor=default;labelBackgroundColor=default;endArrow=classic;endFill=1;flowAnimation=0;" edge="1" parent="1Hu_FpD2nitlBrhvJcuN-33" source="1Hu_FpD2nitlBrhvJcuN-145" target="1Hu_FpD2nitlBrhvJcuN-153">
          <mxGeometry relative="1" as="geometry" />
        </mxCell>
        <mxCell id="1Hu_FpD2nitlBrhvJcuN-145" value="&lt;font style=&quot;font-size: 9px;&quot;&gt;Publicar&lt;/font&gt;&lt;div&gt;&lt;font style=&quot;font-size: 9px;&quot;&gt;resultado&lt;/font&gt;&lt;/div&gt;" style="whiteSpace=wrap;html=1;fontSize=11;labelBackgroundColor=default;rounded=1;" vertex="1" parent="1Hu_FpD2nitlBrhvJcuN-33">
          <mxGeometry x="740" y="115" width="80" height="60" as="geometry" />
        </mxCell>
        <mxCell id="1Hu_FpD2nitlBrhvJcuN-153" value="&lt;span style=&quot;font-size: 9px; background-color: rgb(236, 236, 236);&quot;&gt;publish&lt;/span&gt;&lt;br&gt;&lt;div style=&quot;font-size: 9px; background-color: rgb(236, 236, 236);&quot;&gt;&lt;font style=&quot;line-height: 9px;&quot;&gt;kafka&lt;/font&gt;&lt;/div&gt;" style="ellipse;shape=doubleEllipse;whiteSpace=wrap;html=1;aspect=fixed;fontFamily=Helvetica;fontSize=11;fontColor=default;labelBackgroundColor=default;opacity=90;" vertex="1" parent="1Hu_FpD2nitlBrhvJcuN-33">
          <mxGeometry x="760" y="30" width="40" height="40" as="geometry" />
        </mxCell>
        <mxCell id="1Hu_FpD2nitlBrhvJcuN-167" value="&lt;blockquote style=&quot;margin-top: 0px; margin-right: 0px; margin-left: 0px;&quot;&gt;Webhook / Polling&lt;/blockquote&gt;" style="text;html=1;whiteSpace=wrap;overflow=hidden;rounded=0;fontFamily=Helvetica;fontSize=9;fontColor=default;labelBackgroundColor=default;align=right;verticalAlign=middle;" vertex="1" parent="1Hu_FpD2nitlBrhvJcuN-33">
          <mxGeometry x="700" y="10" width="56.25" height="30" as="geometry" />
        </mxCell>
        <mxCell id="1Hu_FpD2nitlBrhvJcuN-155" value="" style="edgeStyle=orthogonalEdgeStyle;shape=connector;rounded=0;orthogonalLoop=1;jettySize=auto;html=1;shadow=0;strokeColor=default;align=center;verticalAlign=middle;fontFamily=Helvetica;fontSize=11;fontColor=default;labelBackgroundColor=default;endArrow=classic;endFill=1;flowAnimation=0;dashed=1;dashPattern=1 4;" edge="1" parent="1Hu_FpD2nitlBrhvJcuN-1" source="1Hu_FpD2nitlBrhvJcuN-153" target="1Hu_FpD2nitlBrhvJcuN-152">
          <mxGeometry relative="1" as="geometry" />
        </mxCell>
        <mxCell id="1Hu_FpD2nitlBrhvJcuN-166" value="" style="edgeStyle=orthogonalEdgeStyle;shape=connector;rounded=0;orthogonalLoop=1;jettySize=auto;html=1;shadow=0;strokeColor=default;align=center;verticalAlign=middle;fontFamily=Helvetica;fontSize=11;fontColor=default;labelBackgroundColor=default;endArrow=classic;endFill=1;flowAnimation=0;dashed=1;" edge="1" parent="1Hu_FpD2nitlBrhvJcuN-1" source="1Hu_FpD2nitlBrhvJcuN-158" target="1Hu_FpD2nitlBrhvJcuN-165">
          <mxGeometry relative="1" as="geometry" />
        </mxCell>
        <mxCell id="1Hu_FpD2nitlBrhvJcuN-86" value="Antifraude" style="swimlane;horizontal=0;whiteSpace=wrap;html=1;fontFamily=Helvetica;fontSize=11;fontColor=default;labelBackgroundColor=default;" vertex="1" parent="1">
          <mxGeometry x="140" y="-340" width="180" height="210" as="geometry" />
        </mxCell>
        <mxCell id="1Hu_FpD2nitlBrhvJcuN-95" value="" style="edgeStyle=orthogonalEdgeStyle;shape=connector;rounded=0;orthogonalLoop=1;jettySize=auto;html=1;shadow=0;strokeColor=default;align=center;verticalAlign=middle;fontFamily=Helvetica;fontSize=11;fontColor=default;labelBackgroundColor=default;endArrow=classic;endFill=1;flowAnimation=0;" edge="1" parent="1Hu_FpD2nitlBrhvJcuN-86" source="1Hu_FpD2nitlBrhvJcuN-92" target="1Hu_FpD2nitlBrhvJcuN-94">
          <mxGeometry relative="1" as="geometry">
            <Array as="points">
              <mxPoint x="60" y="100" />
              <mxPoint x="40" y="100" />
              <mxPoint x="40" y="150" />
            </Array>
          </mxGeometry>
        </mxCell>
        <mxCell id="1Hu_FpD2nitlBrhvJcuN-92" value="&lt;span style=&quot;font-size: 9px; background-color: rgb(236, 236, 236);&quot;&gt;receive&lt;/span&gt;&lt;br&gt;&lt;div style=&quot;font-size: 9px; background-color: rgb(236, 236, 236);&quot;&gt;&lt;font style=&quot;line-height: 9px;&quot;&gt;request&lt;/font&gt;&lt;/div&gt;" style="ellipse;shape=doubleEllipse;whiteSpace=wrap;html=1;aspect=fixed;fontFamily=Helvetica;fontSize=11;fontColor=default;labelBackgroundColor=default;" vertex="1" parent="1Hu_FpD2nitlBrhvJcuN-86">
          <mxGeometry x="40" y="40" width="40" height="40" as="geometry" />
        </mxCell>
        <mxCell id="1Hu_FpD2nitlBrhvJcuN-98" style="edgeStyle=orthogonalEdgeStyle;shape=connector;rounded=0;orthogonalLoop=1;jettySize=auto;html=1;exitX=1;exitY=0.5;exitDx=0;exitDy=0;entryX=0.5;entryY=1;entryDx=0;entryDy=0;shadow=0;strokeColor=default;align=center;verticalAlign=middle;fontFamily=Helvetica;fontSize=11;fontColor=default;labelBackgroundColor=default;endArrow=classic;endFill=1;flowAnimation=0;" edge="1" parent="1Hu_FpD2nitlBrhvJcuN-86" source="1Hu_FpD2nitlBrhvJcuN-94" target="1Hu_FpD2nitlBrhvJcuN-96">
          <mxGeometry relative="1" as="geometry" />
        </mxCell>
        <mxCell id="1Hu_FpD2nitlBrhvJcuN-94" value="&lt;font style=&quot;font-size: 9px;&quot;&gt;Antifraude rules&lt;/font&gt;" style="whiteSpace=wrap;html=1;fontSize=11;labelBackgroundColor=default;rounded=1;" vertex="1" parent="1Hu_FpD2nitlBrhvJcuN-86">
          <mxGeometry x="60" y="120" width="80" height="60" as="geometry" />
        </mxCell>
        <mxCell id="1Hu_FpD2nitlBrhvJcuN-96" value="&lt;span style=&quot;font-size: 9px; background-color: rgb(236, 236, 236);&quot;&gt;receive&lt;/span&gt;&lt;br&gt;&lt;div style=&quot;font-size: 9px; background-color: rgb(236, 236, 236);&quot;&gt;&lt;font style=&quot;line-height: 9px;&quot;&gt;request&lt;/font&gt;&lt;/div&gt;" style="ellipse;shape=doubleEllipse;whiteSpace=wrap;html=1;aspect=fixed;fontFamily=Helvetica;fontSize=11;fontColor=default;labelBackgroundColor=default;" vertex="1" parent="1Hu_FpD2nitlBrhvJcuN-86">
          <mxGeometry x="120" y="40" width="40" height="40" as="geometry" />
        </mxCell>
        <mxCell id="1Hu_FpD2nitlBrhvJcuN-93" value="" style="edgeStyle=orthogonalEdgeStyle;shape=connector;rounded=0;orthogonalLoop=1;jettySize=auto;html=1;shadow=0;strokeColor=default;align=center;verticalAlign=middle;fontFamily=Helvetica;fontSize=11;fontColor=default;labelBackgroundColor=default;endArrow=classic;endFill=1;flowAnimation=0;dashed=1;" edge="1" parent="1" source="1Hu_FpD2nitlBrhvJcuN-89" target="1Hu_FpD2nitlBrhvJcuN-92">
          <mxGeometry relative="1" as="geometry" />
        </mxCell>
        <mxCell id="1Hu_FpD2nitlBrhvJcuN-97" value="" style="edgeStyle=orthogonalEdgeStyle;shape=connector;rounded=0;orthogonalLoop=1;jettySize=auto;html=1;shadow=0;strokeColor=default;align=center;verticalAlign=middle;fontFamily=Helvetica;fontSize=11;fontColor=default;labelBackgroundColor=default;endArrow=classic;endFill=1;flowAnimation=0;dashed=1;" edge="1" parent="1" source="1Hu_FpD2nitlBrhvJcuN-96" target="1Hu_FpD2nitlBrhvJcuN-90">
          <mxGeometry relative="1" as="geometry" />
        </mxCell>
        <mxCell id="1Hu_FpD2nitlBrhvJcuN-101" value="SPI" style="swimlane;horizontal=0;whiteSpace=wrap;html=1;fontFamily=Helvetica;fontSize=11;fontColor=default;labelBackgroundColor=default;" vertex="1" parent="1">
          <mxGeometry x="410" y="-340" width="180" height="210" as="geometry" />
        </mxCell>
        <mxCell id="1Hu_FpD2nitlBrhvJcuN-102" value="" style="edgeStyle=orthogonalEdgeStyle;shape=connector;rounded=0;orthogonalLoop=1;jettySize=auto;html=1;shadow=0;strokeColor=default;align=center;verticalAlign=middle;fontFamily=Helvetica;fontSize=11;fontColor=default;labelBackgroundColor=default;endArrow=classic;endFill=1;flowAnimation=0;" edge="1" parent="1Hu_FpD2nitlBrhvJcuN-101" source="1Hu_FpD2nitlBrhvJcuN-103" target="1Hu_FpD2nitlBrhvJcuN-105">
          <mxGeometry relative="1" as="geometry">
            <Array as="points">
              <mxPoint x="60" y="100" />
              <mxPoint x="40" y="100" />
              <mxPoint x="40" y="150" />
            </Array>
          </mxGeometry>
        </mxCell>
        <mxCell id="1Hu_FpD2nitlBrhvJcuN-103" value="&lt;span style=&quot;font-size: 9px; background-color: rgb(236, 236, 236);&quot;&gt;receive&lt;/span&gt;&lt;br&gt;&lt;div style=&quot;font-size: 9px; background-color: rgb(236, 236, 236);&quot;&gt;&lt;font style=&quot;line-height: 9px;&quot;&gt;request&lt;/font&gt;&lt;/div&gt;" style="ellipse;shape=doubleEllipse;whiteSpace=wrap;html=1;aspect=fixed;fontFamily=Helvetica;fontSize=11;fontColor=default;labelBackgroundColor=default;" vertex="1" parent="1Hu_FpD2nitlBrhvJcuN-101">
          <mxGeometry x="40" y="40" width="40" height="40" as="geometry" />
        </mxCell>
        <mxCell id="1Hu_FpD2nitlBrhvJcuN-104" style="edgeStyle=orthogonalEdgeStyle;shape=connector;rounded=0;orthogonalLoop=1;jettySize=auto;html=1;exitX=1;exitY=0.5;exitDx=0;exitDy=0;entryX=0.5;entryY=1;entryDx=0;entryDy=0;shadow=0;strokeColor=default;align=center;verticalAlign=middle;fontFamily=Helvetica;fontSize=11;fontColor=default;labelBackgroundColor=default;endArrow=classic;endFill=1;flowAnimation=0;" edge="1" parent="1Hu_FpD2nitlBrhvJcuN-101" source="1Hu_FpD2nitlBrhvJcuN-105" target="1Hu_FpD2nitlBrhvJcuN-106">
          <mxGeometry relative="1" as="geometry" />
        </mxCell>
        <mxCell id="1Hu_FpD2nitlBrhvJcuN-105" value="&lt;font style=&quot;font-size: 9px;&quot;&gt;Registro do pagamento&lt;/font&gt;" style="whiteSpace=wrap;html=1;fontSize=11;labelBackgroundColor=default;rounded=1;" vertex="1" parent="1Hu_FpD2nitlBrhvJcuN-101">
          <mxGeometry x="60" y="120" width="80" height="60" as="geometry" />
        </mxCell>
        <mxCell id="1Hu_FpD2nitlBrhvJcuN-106" value="&lt;span style=&quot;font-size: 9px; background-color: rgb(236, 236, 236);&quot;&gt;receive&lt;/span&gt;&lt;br&gt;&lt;div style=&quot;font-size: 9px; background-color: rgb(236, 236, 236);&quot;&gt;&lt;font style=&quot;line-height: 9px;&quot;&gt;request&lt;/font&gt;&lt;/div&gt;" style="ellipse;shape=doubleEllipse;whiteSpace=wrap;html=1;aspect=fixed;fontFamily=Helvetica;fontSize=11;fontColor=default;labelBackgroundColor=default;" vertex="1" parent="1Hu_FpD2nitlBrhvJcuN-101">
          <mxGeometry x="120" y="40" width="40" height="40" as="geometry" />
        </mxCell>
        <mxCell id="1Hu_FpD2nitlBrhvJcuN-107" value="" style="edgeStyle=orthogonalEdgeStyle;shape=connector;rounded=0;orthogonalLoop=1;jettySize=auto;html=1;shadow=0;strokeColor=default;align=center;verticalAlign=middle;fontFamily=Helvetica;fontSize=11;fontColor=default;labelBackgroundColor=default;endArrow=none;endFill=0;flowAnimation=0;dashed=1;" edge="1" parent="1" source="1Hu_FpD2nitlBrhvJcuN-99" target="1Hu_FpD2nitlBrhvJcuN-103">
          <mxGeometry relative="1" as="geometry" />
        </mxCell>
        <mxCell id="1Hu_FpD2nitlBrhvJcuN-120" value="" style="edgeStyle=orthogonalEdgeStyle;shape=connector;rounded=0;orthogonalLoop=1;jettySize=auto;html=1;shadow=0;strokeColor=default;align=center;verticalAlign=middle;fontFamily=Helvetica;fontSize=11;fontColor=default;labelBackgroundColor=default;endArrow=classic;endFill=1;flowAnimation=0;dashed=1;" edge="1" parent="1" source="1Hu_FpD2nitlBrhvJcuN-106" target="1Hu_FpD2nitlBrhvJcuN-119">
          <mxGeometry relative="1" as="geometry" />
        </mxCell>
        <mxCell id="1Hu_FpD2nitlBrhvJcuN-136" value="Auditoria" style="swimlane;horizontal=0;whiteSpace=wrap;html=1;fontFamily=Helvetica;fontSize=11;fontColor=default;labelBackgroundColor=default;" vertex="1" parent="1">
          <mxGeometry x="670" y="-340" width="180" height="210" as="geometry" />
        </mxCell>
        <mxCell id="1Hu_FpD2nitlBrhvJcuN-137" value="" style="edgeStyle=orthogonalEdgeStyle;shape=connector;rounded=0;orthogonalLoop=1;jettySize=auto;html=1;shadow=0;strokeColor=default;align=center;verticalAlign=middle;fontFamily=Helvetica;fontSize=11;fontColor=default;labelBackgroundColor=default;endArrow=classic;endFill=1;flowAnimation=0;" edge="1" parent="1Hu_FpD2nitlBrhvJcuN-136" source="1Hu_FpD2nitlBrhvJcuN-138" target="1Hu_FpD2nitlBrhvJcuN-140">
          <mxGeometry relative="1" as="geometry">
            <Array as="points">
              <mxPoint x="60" y="100" />
              <mxPoint x="40" y="100" />
              <mxPoint x="40" y="150" />
            </Array>
          </mxGeometry>
        </mxCell>
        <mxCell id="1Hu_FpD2nitlBrhvJcuN-138" value="&lt;span style=&quot;font-size: 9px; background-color: rgb(236, 236, 236);&quot;&gt;receive&lt;/span&gt;&lt;br&gt;&lt;div style=&quot;font-size: 9px; background-color: rgb(236, 236, 236);&quot;&gt;&lt;font style=&quot;line-height: 9px;&quot;&gt;request&lt;/font&gt;&lt;/div&gt;" style="ellipse;shape=doubleEllipse;whiteSpace=wrap;html=1;aspect=fixed;fontFamily=Helvetica;fontSize=11;fontColor=default;labelBackgroundColor=default;" vertex="1" parent="1Hu_FpD2nitlBrhvJcuN-136">
          <mxGeometry x="40" y="40" width="40" height="40" as="geometry" />
        </mxCell>
        <mxCell id="1Hu_FpD2nitlBrhvJcuN-139" style="edgeStyle=orthogonalEdgeStyle;shape=connector;rounded=0;orthogonalLoop=1;jettySize=auto;html=1;exitX=1;exitY=0.5;exitDx=0;exitDy=0;entryX=0.5;entryY=1;entryDx=0;entryDy=0;shadow=0;strokeColor=default;align=center;verticalAlign=middle;fontFamily=Helvetica;fontSize=11;fontColor=default;labelBackgroundColor=default;endArrow=classic;endFill=1;flowAnimation=0;" edge="1" parent="1Hu_FpD2nitlBrhvJcuN-136" source="1Hu_FpD2nitlBrhvJcuN-140" target="1Hu_FpD2nitlBrhvJcuN-141">
          <mxGeometry relative="1" as="geometry" />
        </mxCell>
        <mxCell id="1Hu_FpD2nitlBrhvJcuN-140" value="&lt;font style=&quot;font-size: 9px;&quot;&gt;Registro do log para auditoria&lt;/font&gt;" style="whiteSpace=wrap;html=1;fontSize=11;labelBackgroundColor=default;rounded=1;" vertex="1" parent="1Hu_FpD2nitlBrhvJcuN-136">
          <mxGeometry x="60" y="120" width="80" height="60" as="geometry" />
        </mxCell>
        <mxCell id="1Hu_FpD2nitlBrhvJcuN-141" value="&lt;span style=&quot;font-size: 9px; background-color: rgb(236, 236, 236);&quot;&gt;receive&lt;/span&gt;&lt;br&gt;&lt;div style=&quot;font-size: 9px; background-color: rgb(236, 236, 236);&quot;&gt;&lt;font style=&quot;line-height: 9px;&quot;&gt;request&lt;/font&gt;&lt;/div&gt;" style="ellipse;shape=doubleEllipse;whiteSpace=wrap;html=1;aspect=fixed;fontFamily=Helvetica;fontSize=11;fontColor=default;labelBackgroundColor=default;" vertex="1" parent="1Hu_FpD2nitlBrhvJcuN-136">
          <mxGeometry x="120" y="40" width="40" height="40" as="geometry" />
        </mxCell>
        <mxCell id="1Hu_FpD2nitlBrhvJcuN-142" value="" style="edgeStyle=orthogonalEdgeStyle;shape=connector;rounded=0;orthogonalLoop=1;jettySize=auto;html=1;shadow=0;strokeColor=default;align=center;verticalAlign=middle;fontFamily=Helvetica;fontSize=11;fontColor=default;labelBackgroundColor=default;endArrow=none;endFill=0;flowAnimation=0;dashed=1;exitX=0.5;exitY=1;exitDx=0;exitDy=0;" edge="1" target="1Hu_FpD2nitlBrhvJcuN-138" parent="1" source="1Hu_FpD2nitlBrhvJcuN-135">
          <mxGeometry relative="1" as="geometry">
            <mxPoint x="770" y="-370" as="sourcePoint" />
          </mxGeometry>
        </mxCell>
        <mxCell id="1Hu_FpD2nitlBrhvJcuN-143" value="" style="edgeStyle=orthogonalEdgeStyle;shape=connector;rounded=0;orthogonalLoop=1;jettySize=auto;html=1;shadow=0;strokeColor=default;align=center;verticalAlign=middle;fontFamily=Helvetica;fontSize=11;fontColor=default;labelBackgroundColor=default;endArrow=classic;endFill=1;flowAnimation=0;dashed=1;" edge="1" source="1Hu_FpD2nitlBrhvJcuN-141" parent="1">
          <mxGeometry relative="1" as="geometry">
            <mxPoint x="810" y="-390" as="targetPoint" />
          </mxGeometry>
        </mxCell>
      </root>
    </mxGraphModel>
  </diagram>
</mxfile>
